 <svg version="1.0" xmlns="http://www.w3.org/2000/svg" width="700.000000pt" height="996.000000pt" viewBox="0 0 700.000000 996.000000" preserveAspectRatio="xMidYMid meet">
<metadata>
Created by potrace 1.12, written by Peter Selinger 2001-2015
</metadata>
<g transform="translate(0.000000,996.000000) scale(0.100000,-0.100000)" fill="#000000" stroke="none">
<path d="M280 9732 c-19 -2 -38 -9 -42 -15 -7 -12 -12 -671 -12 -1902 -1 -651
-2 -690 -18 -689 -10 1 -18 -2 -18 -7 0 -5 8 -9 18 -9 16 0 17 -49 12 -927 -2
-511 -4 -950 -3 -978 0 -27 1 -81 2 -120 1 -38 0 -1143 -1 -2455 l-3 -2385
150 -1 c459 -5 6347 -6 6351 -1 3 2 7 1460 9 3238 2 1779 5 3236 5 3239 1 3 0
61 -1 130 -1 69 -2 152 -2 185 -1 232 16 2192 20 2198 3 5 2 117 -2 251 l-8
242 -1326 3 c-2316 5 -5095 6 -5131 3z m3418 -97 c3 -3 9 -2 14 1 7 5 1090 5
2553 0 l390 -1 -1 -265 c0 -146 -3 -911 -7 -1700 -4 -789 -9 -2762 -12 -4384
-3 -1623 -6 -2951 -8 -2952 -5 -4 -1239 -8 -2287 -6 -608 0 -1123 1 -1145 0
-22 0 -58 0 -80 1 -35 2 -667 4 -2345 5 l-465 1 0 360 c1 198 2 706 3 1130 2
424 3 1180 3 1680 1 1905 8 5100 13 5555 3 261 5 499 5 527 l1 53 378 2 c541
4 2985 -2 2990 -7z"></path>
<path d="M424 9508 c-4 -5 -5 -231 -4 -501 2 -271 0 -1572 -4 -2892 -11 -3619
-12 -5642 -3 -5651 11 -11 6106 -13 6113 -3 3 5 7 1383 9 3061 2 1679 7 3713
10 4521 l7 1467 -339 1 c-2041 7 -5784 5 -5789 -3z m3972 -48 l2092 0 7 -474
c4 -261 4 -527 1 -592 -6 -106 -13 -1882 -15 -3884 -1 -388 -2 -1137 -4 -1665
-1 -528 0 -1269 2 -1648 l3 -687 -713 -1 c-393 0 -779 0 -859 0 -80 0 -402 1
-715 1 l-570 0 -10 22 c-16 34 -39 37 -33 4 l6 -28 -577 2 c-317 1 -580 2
-586 1 -21 -3 -1492 0 -1713 3 -128 2 -236 6 -240 10 -4 4 -6 836 -5 1849 0
1013 1 2213 1 2667 0 454 0 863 0 910 1 675 14 3488 17 3497 3 10 161 13 722
16 395 1 804 1 908 0 105 -2 1131 -3 2281 -3z"></path>
<path d="M610 9403 c-14 -3 -28 -8 -32 -12 -7 -6 -18 -1477 -17 -2316 0 -209
0 -387 0 -395 0 -8 -1 -1385 -3 -3060 l-3 -3045 2913 -2 2912 -3 1 103 c2 169
7 2915 8 3927 0 1109 0 1309 6 2685 4 919 7 2069 6 2101 -1 9 -491 12 -1943
13 -1069 1 -1950 2 -1958 2 -8 0 -315 0 -683 0 -367 0 -783 1 -925 3 -141 2
-268 2 -282 -1z m495 -133 c11 -21 25 -31 50 -36 46 -8 50 -16 20 -44 -19 -18
-25 -34 -25 -65 0 -52 -6 -58 -36 -38 -23 15 -54 14 -98 -3 -17 -6 -18 -3 -11
35 6 36 4 46 -15 66 -25 27 -19 45 15 45 17 0 30 11 46 40 24 43 32 43 54 0z
m1609 5 c8 -19 19 -35 23 -36 70 -6 84 -22 50 -57 -21 -21 -27 -38 -27 -70 0
-23 -2 -42 -3 -42 -2 0 -19 7 -37 17 -33 16 -36 16 -102 -12 -16 -6 -17 -2
-12 38 5 38 3 49 -15 68 -28 31 -27 36 14 43 27 5 41 17 60 46 14 22 27 40 30
40 3 0 11 -16 19 -35z m1612 3 c19 -38 31 -48 59 -48 11 0 27 -5 35 -10 12 -8
9 -15 -17 -42 -28 -29 -32 -38 -26 -71 6 -42 6 -43 -40 -21 -30 15 -36 15 -72
0 -21 -9 -40 -14 -42 -12 -2 2 0 19 5 37 8 30 6 37 -21 66 -35 37 -32 44 20
52 31 5 42 13 58 44 11 20 21 37 22 37 1 0 10 -15 19 -32z m1604 17 c0 -25 46
-65 74 -65 40 0 43 -21 7 -50 -29 -25 -31 -30 -25 -69 7 -45 3 -48 -40 -26
-27 14 -34 14 -68 0 -21 -8 -40 -15 -42 -15 -2 0 0 18 4 41 7 37 5 43 -23 68
-33 31 -29 51 9 51 37 0 60 15 74 50 13 32 30 40 30 15z m-4285 -28 c12 -19
30 -33 45 -35 51 -6 53 -11 21 -48 -24 -26 -30 -41 -25 -59 3 -14 4 -32 0 -40
-5 -13 -10 -13 -41 2 -32 15 -38 16 -69 0 -19 -8 -36 -13 -39 -11 -3 3 -3 23
0 45 5 32 1 44 -17 64 -26 28 -19 45 18 45 21 0 32 8 46 35 23 43 35 43 61 2z
m538 -2 c14 -30 22 -35 51 -35 47 0 51 -12 15 -46 -26 -25 -29 -33 -24 -66 8
-42 0 -46 -50 -24 -26 11 -34 10 -62 -6 -37 -22 -48 -12 -39 36 5 25 2 37 -14
51 -29 26 -25 45 11 52 21 4 38 17 51 39 25 43 40 43 61 -1z m1074 5 c9 -24
19 -31 52 -36 47 -8 51 -21 16 -54 -19 -18 -25 -34 -25 -67 0 -24 -2 -43 -5
-43 -4 0 -20 7 -36 16 -28 14 -34 14 -70 0 -22 -9 -42 -16 -45 -16 -3 0 -2 21
2 46 6 40 4 48 -21 74 -29 30 -27 34 25 44 25 4 41 15 53 36 23 38 40 38 54 0z
m537 1 c16 -31 34 -41 72 -41 32 0 30 -20 -5 -54 -25 -24 -28 -33 -24 -67 6
-44 4 -45 -38 -23 -28 14 -34 14 -70 0 -36 -15 -40 -15 -46 0 -3 8 -1 20 6 27
17 17 13 33 -15 66 -27 32 -25 51 6 51 32 0 50 11 66 41 8 16 19 29 24 29 5 0
16 -13 24 -29z m1083 -6 c12 -25 23 -35 39 -35 51 0 56 -10 23 -48 -28 -31
-31 -40 -25 -78 l5 -43 -39 22 c-38 20 -41 20 -75 4 -48 -23 -48 -23 -41 22 5
33 2 44 -21 71 -29 35 -21 50 29 50 19 0 31 9 47 35 11 19 25 35 31 35 6 0 18
-16 27 -35z m533 6 c9 -23 20 -31 51 -36 45 -8 49 -22 14 -55 -19 -18 -25 -34
-25 -67 l0 -43 -34 17 c-32 15 -37 15 -76 -1 l-42 -17 6 44 c6 38 3 46 -19 67
-14 13 -25 26 -25 30 0 4 17 11 37 16 26 6 44 19 58 41 25 40 39 41 55 4z
m-4570 -354 l41 6 -17 -42 c-16 -40 -16 -45 0 -77 20 -44 20 -47 -3 -34 -29
15 -57 7 -89 -23 -15 -15 -31 -27 -34 -27 -3 0 -8 18 -12 40 -5 34 -12 43 -41
57 -19 9 -35 20 -35 23 0 3 16 14 35 23 23 11 36 25 41 44 12 56 12 56 44 30
24 -21 36 -24 70 -20z m5141 28 c9 -6 10 -120 4 -504 -6 -445 -11 -1723 -15
-3864 0 -406 2 -742 5 -747 3 -6 4 -13 1 -18 -2 -4 -6 -634 -8 -1400 l-3
-1392 -30 0 c-16 0 -436 -2 -932 -5 -703 -3 -903 -2 -907 8 -4 7 -8 8 -11 2
-6 -12 -3094 -13 -3114 0 -11 6 -13 74 -7 384 3 207 6 514 7 683 0 189 4 310
10 314 6 4 6 10 0 18 -8 9 -9 869 -5 2752 3 1506 6 2972 5 3256 l-1 518 483 2
c1004 6 4506 0 4518 -7z m229 -11 c25 -22 38 -26 70 -21 44 6 47 0 25 -43 -14
-27 -14 -32 5 -62 28 -45 26 -49 -21 -42 -36 6 -44 3 -74 -26 l-34 -33 -6 29
c-11 50 -14 54 -50 75 -39 23 -39 31 4 48 30 13 47 55 35 86 -9 23 11 18 46
-11z m-5445 -494 c13 -15 31 -20 67 -20 26 0 48 -2 48 -5 0 -2 -8 -20 -17 -40
-16 -33 -16 -37 0 -70 l17 -36 -45 2 c-37 2 -48 -1 -61 -19 -23 -33 -42 -27
-50 14 -5 27 -14 39 -40 52 -19 8 -34 18 -34 21 0 3 16 16 35 29 20 12 35 30
35 41 0 25 10 51 20 51 4 0 15 -9 25 -20z m5510 -67 c50 7 53 2 30 -42 -13
-26 -12 -32 5 -67 11 -20 17 -40 14 -43 -2 -3 -23 -4 -45 -2 -34 2 -47 -2 -70
-25 -16 -15 -30 -26 -33 -23 -2 2 -7 22 -12 44 -7 31 -16 43 -42 54 -41 19
-41 33 3 54 30 14 35 22 35 50 0 47 9 51 41 21 25 -24 33 -26 74 -21z m-5525
-443 c0 -5 7 -10 15 -10 8 0 15 -4 15 -10 0 -5 23 -10 50 -10 l51 0 -16 -30
c-19 -36 -19 -48 -1 -82 8 -15 12 -29 8 -32 -9 -10 -51 -6 -58 5 -4 7 -19 -1
-39 -21 -37 -36 -55 -33 -55 10 0 25 -7 33 -41 51 l-42 21 39 22 c26 14 40 30
42 46 2 14 5 31 7 38 5 14 25 16 25 2z m5450 -55 c22 -24 29 -25 79 -19 l54 7
-23 -38 -23 -37 22 -38 c25 -45 17 -54 -34 -44 -31 6 -41 2 -66 -22 -25 -24
-31 -26 -39 -14 -5 8 -10 25 -10 37 0 16 -13 31 -40 48 -22 14 -40 27 -40 30
0 2 15 12 33 21 39 20 47 31 47 67 0 34 10 34 40 2z m-5435 -471 c27 -21 40
-24 69 -18 41 7 44 -1 21 -45 -13 -26 -13 -33 1 -60 20 -40 12 -51 -40 -51
-30 0 -48 -6 -61 -20 -25 -28 -32 -25 -39 18 -4 30 -13 42 -43 60 -36 20 -37
22 -15 28 12 4 22 10 22 15 0 5 6 9 14 9 10 0 17 16 22 45 3 25 8 45 11 45 2
0 19 -12 38 -26z m5503 -64 l53 0 -16 -30 c-20 -39 -19 -62 5 -93 11 -14 20
-27 20 -30 0 -2 -23 -2 -51 1 -44 4 -53 2 -78 -22 -31 -30 -35 -28 -45 21 -5
22 -18 38 -42 52 -38 23 -37 34 6 56 21 11 30 24 35 56 l7 41 27 -26 c22 -21
37 -26 79 -26z m-5507 -456 c21 -22 29 -25 66 -19 24 3 43 4 43 1 0 -3 -7 -21
-16 -39 -15 -31 -15 -36 0 -65 25 -48 21 -55 -21 -49 -33 6 -42 2 -70 -25 -18
-18 -34 -29 -34 -25 -1 4 -2 10 -3 15 -1 4 -4 12 -7 17 -4 6 -9 21 -12 36 -4
15 -19 31 -39 41 l-33 16 37 17 c31 15 37 24 43 61 3 24 10 44 14 44 4 0 18
-12 32 -26z m5440 -40 c21 -23 29 -25 72 -20 26 4 47 4 47 2 0 -3 -8 -21 -17
-41 -16 -33 -16 -37 0 -70 9 -20 17 -38 17 -40 0 -3 -22 -5 -49 -5 -37 0 -52
-5 -62 -20 -24 -33 -41 -28 -53 15 -7 24 -21 44 -35 51 -43 22 -44 30 -7 52
26 15 36 28 36 46 0 29 9 56 19 56 4 0 18 -12 32 -26z m-5372 -499 c46 8 49 2
25 -48 -15 -31 -15 -36 0 -65 9 -17 16 -33 16 -37 0 -3 -19 -5 -43 -5 -33 0
-49 -6 -67 -25 -27 -29 -40 -24 -40 15 0 29 -16 52 -51 70 -27 15 -24 26 11
40 19 8 32 22 36 39 15 67 13 65 44 36 25 -24 33 -26 69 -20z m5372 -21 c21
-22 29 -25 66 -19 48 7 51 3 29 -49 -13 -30 -12 -36 5 -62 10 -16 19 -32 19
-36 0 -5 -22 -8 -48 -8 -39 0 -53 -5 -73 -26 l-24 -26 -11 39 c-7 25 -22 46
-45 61 -19 13 -35 27 -37 31 -1 4 14 15 34 24 24 12 34 22 30 32 -3 8 -1 17 5
21 6 3 8 12 5 19 -5 13 2 25 14 25 4 0 17 -12 31 -26z m-5372 -501 c45 6 48 0
26 -43 -14 -27 -14 -33 0 -60 21 -40 13 -50 -38 -50 -31 0 -48 -7 -69 -27
l-28 -27 0 28 c0 37 -17 65 -46 76 -33 13 -30 36 6 55 18 9 32 26 36 43 12 56
13 57 44 27 25 -24 35 -27 69 -22z m5371 -19 c21 -21 30 -24 62 -19 52 9 61 0
37 -39 -20 -34 -20 -34 0 -67 11 -18 18 -36 15 -41 -3 -4 -24 -5 -47 -2 -36 5
-45 2 -66 -20 -14 -14 -28 -26 -31 -26 -4 0 -10 18 -14 39 -5 34 -11 42 -41
52 -44 16 -45 35 -1 56 27 13 35 23 40 54 7 46 14 48 46 13z m-5444 -475 c15
-17 28 -20 66 -17 27 2 48 0 48 -4 0 -4 -7 -23 -16 -42 -15 -31 -15 -36 0 -66
9 -18 16 -35 16 -37 0 -1 -19 -3 -43 -3 -33 0 -49 -6 -67 -25 -31 -33 -38 -32
-46 11 -5 27 -15 41 -40 56 -19 11 -34 23 -34 27 0 4 15 15 34 24 28 13 35 23
41 56 8 46 14 50 41 20z m5510 -58 c27 1 48 -2 47 -7 -1 -5 -8 -23 -15 -41
-10 -27 -9 -38 5 -68 l17 -35 -51 0 c-43 0 -54 -4 -71 -25 -27 -34 -34 -32
-42 15 -5 34 -12 43 -41 57 -40 19 -40 32 -2 51 16 8 29 24 33 40 15 68 13 66
44 37 23 -22 35 -26 76 -24z m-5502 -470 c25 -16 39 -18 70 -11 33 7 37 6 30
-8 -28 -68 -28 -71 -11 -107 l17 -35 -42 0 c-32 0 -49 -6 -70 -27 -24 -23 -30
-25 -38 -13 -5 8 -10 28 -10 43 0 23 -6 31 -30 40 -16 6 -30 17 -30 24 0 7 14
19 30 28 23 12 30 23 30 44 0 46 9 49 54 22z m5427 -27 c20 -22 30 -25 67 -21
23 2 44 2 46 -2 3 -4 -3 -22 -12 -40 -15 -32 -15 -36 5 -72 l21 -39 -51 0
c-41 0 -56 -5 -78 -26 -30 -28 -28 -29 -43 37 -4 17 -17 29 -42 39 l-36 14 29
23 c15 13 34 28 41 34 6 5 12 25 12 44 0 42 8 44 41 9z m-5370 -507 l42 6 -8
-29 c-10 -40 -10 -85 -1 -106 7 -16 3 -18 -31 -18 -29 0 -46 -7 -63 -25 -30
-32 -45 -27 -45 15 0 27 -6 37 -29 50 -30 16 -46 40 -27 40 21 0 51 40 51 68
0 41 9 45 41 18 23 -20 36 -23 70 -19z m5443 -32 c52 8 55 4 29 -49 -15 -32
-15 -37 0 -60 26 -40 22 -49 -19 -41 -32 6 -41 3 -70 -26 -19 -18 -37 -30 -40
-26 -4 4 -10 24 -13 44 -5 30 -14 42 -45 59 l-39 22 37 17 c22 11 36 24 36 35
0 11 5 31 10 46 l11 27 28 -27 c26 -25 33 -27 75 -21z m-5499 -475 c14 -16 26
-19 56 -14 43 7 49 -3 25 -46 -12 -21 -12 -29 0 -52 23 -44 18 -54 -23 -50
-31 3 -43 -1 -62 -22 -14 -14 -28 -26 -31 -26 -4 0 -10 18 -14 40 -5 32 -12
42 -41 56 -19 9 -35 18 -35 19 0 2 16 13 35 25 25 15 36 31 41 56 7 39 23 43
49 14z m5431 -31 c16 -18 27 -20 67 -15 43 5 48 3 42 -12 -26 -63 -27 -71 -11
-94 28 -40 21 -51 -28 -45 -40 6 -47 4 -64 -18 -27 -34 -39 -31 -46 10 -6 28
-15 39 -49 56 -38 20 -40 23 -23 33 43 26 67 49 65 65 -4 47 15 55 47 20z
m-5441 -479 c13 -15 31 -20 67 -20 26 0 48 -2 48 -5 0 -3 -8 -17 -17 -31 -17
-26 -17 -28 12 -96 6 -16 1 -18 -41 -18 -38 0 -53 -5 -76 -27 l-27 -26 -7 42
c-6 35 -12 44 -40 56 -43 18 -43 27 0 47 27 13 34 24 40 57 7 46 15 50 41 21z
m5436 -26 c21 -23 29 -25 71 -19 38 5 48 4 48 -7 0 -8 -4 -18 -9 -23 -15 -16
-16 -58 -3 -82 20 -35 15 -41 -29 -36 -34 5 -44 2 -69 -22 -34 -32 -33 -32
-46 14 -6 24 -19 39 -41 50 -41 20 -41 31 0 56 25 16 33 28 35 58 4 44 10 46
43 11z m-5425 -500 c31 -24 38 -25 58 -14 29 15 53 5 36 -15 -14 -17 -17 -70
-6 -108 8 -28 8 -28 -25 -22 -29 5 -38 2 -63 -24 -17 -17 -33 -31 -38 -31 -4
0 -11 18 -14 40 -5 33 -13 43 -40 56 -38 18 -36 27 7 49 20 11 29 23 29 39 0
26 9 56 17 56 2 0 20 -12 39 -26z m5497 -34 c21 4 40 3 43 -1 2 -4 -3 -23 -12
-43 -16 -32 -16 -36 -1 -60 27 -41 22 -49 -25 -43 -38 5 -47 2 -74 -25 l-32
-30 -7 34 c-8 36 -31 68 -50 68 -7 0 -18 6 -24 14 -9 11 -5 16 19 26 34 14 50
37 50 73 0 37 11 40 44 9 27 -25 36 -28 69 -22z m-5440 -502 c20 6 38 8 41 5
2 -3 -3 -20 -11 -39 -15 -31 -15 -37 0 -75 l16 -42 -36 6 c-30 5 -43 1 -69
-18 -42 -32 -54 -31 -54 4 0 32 -18 56 -50 66 -28 9 -25 17 15 43 28 18 35 28
35 55 0 48 9 51 46 16 29 -28 35 -30 67 -21z m5415 -28 c7 0 21 6 32 12 32 20
44 -2 24 -44 -15 -32 -15 -37 0 -66 22 -43 21 -45 -20 -37 -31 5 -41 2 -65
-21 -32 -30 -59 -27 -59 8 0 31 -9 42 -47 62 -18 9 -33 18 -33 20 0 2 15 11
34 20 27 12 35 24 41 53 10 56 14 58 49 24 18 -17 37 -31 44 -31z m-5479 -474
c19 -20 29 -23 62 -19 21 3 39 3 39 1 0 -3 -7 -22 -15 -42 -14 -32 -14 -39 0
-66 20 -39 20 -39 -23 -34 -32 4 -42 0 -67 -26 -33 -35 -40 -37 -42 -12 -1 9
-4 26 -6 37 -3 11 -6 23 -6 26 -1 4 -14 12 -31 19 -39 16 -38 23 5 49 30 17
35 26 35 56 0 42 17 46 49 11z m5436 -16 c13 -15 31 -20 66 -20 l49 0 -17 -35
c-15 -32 -15 -38 0 -69 8 -19 13 -36 11 -39 -3 -3 -22 -3 -42 0 -30 4 -41 0
-61 -21 -34 -36 -48 -33 -56 12 -5 32 -13 42 -41 56 -39 18 -37 29 7 51 22 12
29 23 29 44 0 46 24 55 55 21z m-5455 -490 c0 -17 44 -34 83 -31 42 2 43 0 21
-39 -16 -25 -16 -30 0 -60 24 -48 21 -53 -25 -47 -36 5 -45 2 -66 -21 -20 -22
-26 -24 -33 -12 -6 8 -10 25 -10 38 0 16 -10 27 -35 39 -19 9 -35 20 -35 24 0
4 14 16 30 26 17 10 33 29 36 43 3 14 7 31 10 38 4 14 24 16 24 2z m5453 -26
c25 -21 38 -25 69 -21 42 6 45 0 23 -43 -14 -27 -13 -32 6 -64 l21 -36 -44 0
c-35 0 -50 -6 -68 -25 -31 -33 -36 -32 -47 13 -7 28 -17 42 -46 57 -43 23 -46
32 -14 44 36 14 60 47 55 76 -7 32 6 32 45 -1z m-272 -293 c15 -35 21 -39 64
-45 l47 -8 -32 -33 c-28 -29 -32 -39 -28 -74 2 -23 2 -41 0 -41 -1 0 -19 7
-39 15 -33 14 -41 14 -75 0 -21 -8 -40 -15 -42 -15 -2 0 -1 22 2 48 4 43 1 51
-22 69 -14 12 -26 23 -26 26 0 3 20 9 45 13 28 4 45 11 45 20 0 8 4 14 9 14 5
0 12 11 15 25 9 35 18 31 37 -14z m-4832 -6 c14 -24 28 -35 43 -35 45 0 53
-15 24 -46 -20 -22 -26 -39 -26 -71 0 -24 -2 -43 -5 -43 -4 0 -19 7 -36 15
-27 15 -33 14 -61 0 -17 -8 -33 -14 -35 -12 -1 2 -4 22 -5 45 -1 26 -8 48 -20
58 -28 26 -22 42 18 50 27 5 41 15 56 40 11 19 21 34 23 34 2 0 12 -16 24 -35z
m534 1 c13 -28 23 -35 57 -41 l42 -7 -30 -32 c-25 -27 -28 -37 -24 -75 4 -42
4 -44 -19 -37 -55 18 -80 18 -105 1 l-27 -17 5 45 c5 39 2 49 -18 68 -33 31
-30 46 12 53 26 5 41 16 56 42 11 19 23 34 27 34 4 0 15 -15 24 -34z m535 0
c15 -26 30 -37 56 -42 43 -8 44 -13 10 -45 -22 -21 -25 -30 -20 -66 6 -48 1
-51 -46 -27 -25 13 -36 14 -50 5 -32 -20 -48 -13 -48 22 0 17 -9 43 -20 57
-25 32 -25 50 -1 50 33 0 50 11 72 46 11 19 22 34 24 34 2 0 12 -15 23 -34z
m1074 0 c13 -27 24 -34 57 -40 23 -3 41 -10 41 -14 0 -5 -13 -21 -30 -37 -26
-25 -29 -33 -24 -67 7 -42 1 -46 -40 -24 -27 14 -62 11 -72 -5 -3 -5 -12 -9
-21 -9 -13 0 -14 8 -9 40 5 35 3 44 -19 64 -32 30 -32 44 3 52 48 10 52 13 70
44 9 16 20 30 23 30 3 0 13 -15 21 -34z m537 -1 c11 -19 27 -35 35 -35 8 0 27
-5 41 -10 l27 -10 -31 -36 c-23 -26 -30 -41 -25 -57 11 -37 10 -42 -11 -39
-43 7 -91 7 -112 -1 -22 -8 -23 -6 -23 36 0 31 -6 49 -20 62 -30 27 -24 43 19
50 32 5 42 13 56 41 9 19 18 34 19 34 2 0 13 -16 25 -35z m539 1 c10 -28 19
-35 50 -41 54 -10 56 -14 28 -44 -16 -17 -26 -40 -28 -66 -3 -43 -1 -42 -71
-28 -15 3 -33 0 -41 -6 -25 -21 -45 -3 -39 35 4 27 0 42 -16 64 -11 16 -21 31
-21 33 0 3 17 7 38 10 29 5 41 14 56 42 11 19 22 35 26 35 3 0 12 -15 18 -34z
m559 -23 c14 -15 34 -23 54 -23 l31 0 -26 -34 c-18 -24 -26 -47 -26 -75 0 -47
0 -47 -41 -25 -28 14 -34 14 -70 0 -22 -9 -42 -16 -45 -16 -3 0 -2 19 1 43 6
35 3 46 -14 61 -28 25 -27 46 2 46 28 0 47 15 72 55 17 27 19 28 29 10 6 -10
21 -29 33 -42z m527 16 c7 -14 24 -26 44 -30 47 -9 49 -16 19 -47 -22 -23 -25
-33 -20 -69 6 -48 0 -52 -51 -28 -29 14 -36 14 -62 0 -42 -22 -47 -19 -41 21
5 29 1 43 -20 71 -14 18 -23 36 -20 40 4 3 24 9 44 12 23 4 42 14 48 26 27 53
34 53 59 4z m-2692 1 c13 -23 24 -30 47 -30 42 0 48 -17 17 -49 -20 -20 -26
-37 -26 -69 0 -23 -2 -42 -5 -42 -4 0 -20 7 -37 16 -29 15 -34 15 -65 0 -18
-9 -36 -16 -40 -16 -3 0 -3 19 1 42 6 36 3 45 -20 69 -29 30 -26 43 9 45 12 1
28 2 34 3 7 0 19 15 28 31 20 38 35 38 57 0z"></path>
<path d="M1026 8885 c-6 -33 -16 -3008 -19 -5948 -1 -1403 1 -1870 10 -1875
15 -10 4891 -8 4900 2 5 4 9 478 11 1053 1 576 5 1049 7 1053 3 4 2 10 -1 13
-5 5 -5 790 1 3137 6 2146 6 2583 1 2588 -3 2 -1108 5 -2455 6 l-2450 2 -5
-31z m1648 -89 c18 -7 49 -28 69 -46 l37 -32 20 23 c10 13 19 27 20 31 0 13
71 27 94 18 28 -10 76 -66 76 -87 0 -8 -8 -28 -17 -44 -20 -33 -65 -40 -99
-15 -28 21 -10 31 27 16 28 -12 33 -12 45 5 18 25 18 45 -2 73 -12 17 -25 22
-58 22 -50 0 -59 -8 -76 -67 -11 -37 -10 -45 7 -74 11 -20 40 -45 73 -62 46
-24 63 -28 105 -24 54 5 119 37 147 71 24 29 23 33 -17 40 -31 6 -53 22 -43
31 2 2 23 -1 47 -7 l43 -11 47 51 c59 65 105 92 158 92 35 0 48 -6 79 -36 l36
-37 22 26 c32 38 63 50 111 42 49 -7 112 -48 145 -95 23 -32 24 -32 84 -27
l61 6 -24 -19 c-13 -11 -34 -20 -47 -20 -13 0 -24 -4 -24 -9 0 -19 85 -81 132
-97 68 -22 125 -6 186 52 43 41 44 45 38 86 -4 24 -14 53 -22 65 -36 56 -116
29 -122 -41 -4 -44 16 -56 53 -32 33 22 41 2 9 -23 -33 -26 -45 -26 -75 -3
-36 30 -30 78 14 119 58 53 126 43 153 -23 l14 -34 32 35 c41 48 77 65 133 65
61 0 107 -23 154 -76 l38 -44 16 40 c8 22 20 40 26 40 15 0 14 -20 -4 -70 -15
-42 -14 -44 10 -76 43 -56 88 -77 152 -72 71 6 103 37 103 101 0 48 -40 114
-75 123 -33 8 -83 -21 -91 -53 -13 -51 36 -102 71 -73 11 9 12 17 4 32 -9 17
-8 19 8 16 22 -4 31 -57 11 -69 -7 -5 -28 -9 -47 -9 -46 0 -71 30 -71 86 0 55
41 94 101 94 41 0 66 -17 100 -70 l16 -25 36 32 c36 32 131 68 148 57 5 -3 21
-8 35 -10 40 -7 94 -38 149 -83 27 -23 54 -40 59 -38 5 2 15 23 22 48 17 58
42 80 98 86 39 5 48 2 70 -22 30 -32 33 -61 10 -93 -18 -26 -75 -30 -94 -7
-17 21 -4 32 20 17 28 -17 39 -15 51 12 24 51 -34 86 -92 56 -45 -25 -64 -117
-31 -155 44 -52 72 -65 141 -65 78 0 116 19 161 81 34 47 37 76 14 125 -12 25
-23 34 -41 34 -37 0 -63 -18 -63 -44 0 -29 24 -40 41 -20 8 10 15 12 22 5 15
-15 -10 -41 -39 -41 -34 0 -67 35 -59 63 10 35 52 67 89 67 44 0 76 -36 91
-102 11 -50 13 -53 49 -59 41 -7 91 -49 100 -85 18 -70 -81 -128 -119 -70 -13
19 -14 28 -4 50 7 14 18 26 26 26 15 0 17 -16 3 -25 -16 -10 -12 -42 6 -49 24
-9 54 22 54 55 0 37 -41 69 -89 69 -28 0 -45 -9 -77 -38 -48 -43 -64 -88 -64
-177 0 -59 2 -62 44 -104 42 -41 47 -43 90 -39 64 8 76 21 76 82 0 55 -12 76
-42 76 -26 0 -45 -44 -28 -65 10 -12 10 -15 -4 -15 -23 0 -36 39 -23 68 22 48
98 41 124 -12 33 -70 -9 -147 -88 -163 l-39 -8 46 -59 c60 -76 84 -130 84
-191 0 -72 -15 -116 -52 -146 l-31 -26 41 -37 c49 -45 61 -86 38 -139 -25 -61
-108 -78 -151 -31 -28 30 -32 60 -11 90 14 20 50 25 74 10 19 -11 5 -24 -21
-19 -13 3 -29 -2 -35 -10 -10 -12 -8 -21 14 -47 22 -25 32 -30 53 -25 39 9 53
29 58 77 4 37 1 47 -22 68 -22 21 -36 25 -87 25 -55 0 -62 -3 -84 -30 -18 -22
-24 -42 -24 -78 0 -58 15 -89 68 -140 l39 -39 54 16 c62 19 59 18 59 7 0 -5
-16 -16 -36 -26 l-36 -17 41 -42 c68 -69 81 -163 35 -255 -28 -56 -28 -61 2
-161 7 -25 7 -25 -15 -6 -11 11 -26 36 -33 57 -13 45 -22 42 -68 -16 -28 -35
-31 -46 -27 -87 3 -34 0 -48 -8 -48 -17 0 -25 23 -25 70 0 29 9 50 36 85 36
48 36 60 -1 67 -11 2 -21 10 -23 18 -2 13 9 16 57 15 44 0 65 5 77 17 19 19
31 110 20 153 -6 25 -71 105 -85 105 -4 0 -12 -17 -17 -37 -5 -20 -15 -39 -23
-41 -11 -4 -12 6 -7 52 8 57 7 57 -32 94 -22 20 -46 51 -55 67 -32 67 -28 152
10 197 13 14 12 17 -6 23 -30 9 -79 71 -86 108 -19 102 107 189 179 125 48
-44 33 -138 -22 -138 -34 0 -52 16 -52 46 0 35 17 37 24 4 6 -35 30 -40 46 -9
16 30 9 59 -22 82 -52 39 -128 -11 -128 -85 0 -95 124 -144 217 -87 83 51 68
209 -33 328 -29 35 -40 33 -49 -8 -3 -16 -13 -36 -22 -43 -18 -14 -18 -14 5
74 12 44 -4 74 -66 131 -34 30 -50 37 -83 37 -84 0 -129 -49 -129 -140 0 -78
35 -104 103 -75 12 5 17 3 17 -9 0 -20 -40 -30 -86 -21 l-36 6 7 -67 c6 -52 5
-66 -5 -62 -8 2 -15 13 -16 24 -14 100 -15 103 -41 93 -32 -12 -103 -12 -103
1 0 6 15 10 33 10 66 0 81 17 93 104 l11 78 -66 -7 c-79 -7 -101 -27 -101 -87
0 -27 -4 -38 -12 -35 -14 4 -15 23 -4 79 7 37 6 37 -31 44 -88 16 -100 47 -15
38 l58 -6 -4 36 c-5 43 4 86 19 86 7 0 8 -14 4 -40 -5 -30 -2 -47 10 -66 15
-24 20 -25 68 -19 115 16 142 43 135 137 -4 55 -8 62 -55 110 l-50 50 -55 -12
c-69 -16 -99 -7 -38 10 25 7 49 16 53 20 5 4 -19 30 -52 57 -45 38 -76 55
-127 69 l-67 18 -46 -25 c-84 -44 -111 -119 -75 -208 19 -47 57 -66 110 -56
71 13 105 80 68 133 -25 36 -94 25 -94 -15 0 -7 11 -13 25 -13 14 0 25 -4 25
-10 0 -17 -70 -12 -77 6 -12 32 10 69 47 77 75 18 130 -40 110 -115 -10 -35
-47 -78 -71 -82 -8 -1 -19 -5 -25 -8 -17 -11 -77 0 -104 20 -20 15 -36 38 -57
80 0 2 -20 -6 -44 -19 -52 -26 -130 -27 -168 -2 -14 9 -48 38 -75 65 -39 39
-51 46 -63 37 -7 -7 -16 -9 -20 -6 -3 4 -14 2 -25 -4 -11 -6 -22 -8 -25 -5
-10 10 19 36 39 36 56 0 6 80 -72 115 -70 32 -157 -4 -190 -78 -26 -56 -25
-80 4 -114 44 -53 116 -28 116 39 0 16 -6 31 -14 34 -19 7 -56 -13 -56 -31 0
-8 -4 -15 -10 -15 -19 0 -10 49 12 64 31 22 51 20 75 -6 23 -26 26 -51 11 -91
-13 -35 -36 -47 -87 -47 -34 0 -44 5 -68 34 l-27 35 -33 -29 c-47 -42 -121
-62 -183 -50 -55 10 -119 40 -139 64 -19 23 -32 20 -57 -11 -12 -16 -26 -25
-30 -21 -4 5 0 16 9 25 31 35 30 66 -3 111 -36 50 -113 102 -150 102 -49 0
-90 -63 -90 -140 0 -65 12 -88 57 -106 31 -13 38 -13 59 1 34 22 48 62 34 96
-7 15 -19 30 -27 33 -24 9 -45 -14 -38 -41 3 -13 1 -23 -4 -23 -13 0 -19 11
-25 43 -4 21 1 31 20 44 33 21 63 7 89 -40 56 -104 -72 -190 -160 -107 l-23
21 -25 -25 c-25 -25 -57 -32 -112 -27 -55 5 -81 91 -46 148 29 47 68 54 98 18
21 -24 22 -30 10 -48 -23 -35 -37 -32 -30 7 5 32 3 36 -16 36 -28 0 -61 -34
-61 -64 0 -68 86 -101 135 -51 20 20 25 34 25 78 0 30 -5 67 -10 84 -12 32
-53 60 -85 58 -56 -5 -139 -70 -167 -131 -9 -18 -6 -30 11 -60 28 -48 17 -58
-18 -16 l-27 33 -19 -21 c-36 -40 -109 -70 -170 -70 -66 0 -119 20 -161 61
l-31 30 -24 -36 c-25 -37 -34 -42 -44 -25 -3 6 0 13 8 16 9 3 21 19 27 35 28
67 -24 156 -104 179 -66 18 -124 -3 -175 -64 l-33 -41 46 -14 c75 -23 53 -43
-24 -21 -33 10 -37 8 -90 -44 -30 -29 -70 -59 -88 -66 -41 -16 -126 -8 -150
14 -26 23 -38 20 -51 -13 -26 -62 -118 -92 -179 -57 -32 17 -62 65 -62 99 0
35 24 83 45 91 52 20 115 -8 115 -50 0 -26 -34 -58 -55 -51 -22 9 -19 27 5 27
13 0 20 7 20 19 0 39 -52 50 -88 18 -15 -14 -18 -25 -12 -55 8 -46 27 -82 43
-83 37 -3 104 4 120 13 22 11 37 49 43 102 8 80 -74 166 -158 166 -44 0 -121
-37 -187 -90 l-53 -44 45 -13 c42 -12 65 -28 55 -38 -2 -2 -32 3 -67 12 l-63
16 -51 -51 c-48 -48 -51 -54 -54 -109 -6 -96 25 -129 131 -140 50 -5 55 -4 71
20 12 20 15 37 10 67 -8 46 8 56 21 13 8 -32 8 -28 -1 -70 -6 -30 -4 -33 18
-33 13 0 38 5 56 11 34 12 55 4 31 -11 -8 -5 -33 -12 -55 -16 -55 -9 -56 -10
-39 -51 16 -37 11 -89 -6 -78 -6 3 -10 16 -10 29 0 13 -5 37 -11 55 -12 33
-18 36 -107 46 l-53 6 7 -73 c3 -40 13 -80 21 -89 8 -10 34 -20 59 -24 60 -9
57 -28 -3 -23 -27 2 -54 6 -62 9 -11 3 -17 -10 -23 -51 -13 -84 -32 -90 -23
-8 l7 68 -46 -6 c-45 -7 -76 5 -76 28 0 7 4 7 13 0 18 -15 67 -6 91 17 18 17
22 30 19 68 -5 56 -26 94 -66 118 -60 36 -129 15 -186 -55 -30 -38 -33 -46
-28 -88 3 -26 9 -58 13 -72 7 -22 6 -24 -9 -12 -9 8 -21 29 -27 48 -6 19 -15
34 -19 34 -15 0 -61 -57 -90 -114 -71 -135 -14 -269 114 -269 88 0 135 41 135
118 0 27 -8 44 -29 66 -31 30 -61 36 -105 19 -22 -8 -26 -16 -26 -49 0 -44 25
-75 41 -50 5 8 9 22 9 32 0 23 24 17 28 -7 5 -24 -26 -56 -54 -56 -40 0 -67
64 -48 115 8 21 56 45 91 45 34 0 88 -31 103 -61 7 -12 10 -43 8 -71 -5 -52
-34 -93 -77 -109 -25 -10 -25 -11 6 -91 26 -69 9 -126 -59 -195 l-51 -51 7
-52 c8 -63 -11 -66 -28 -6 l-11 38 -47 -50 c-51 -54 -64 -95 -55 -165 8 -56
35 -75 97 -69 61 6 78 -15 20 -24 -22 -4 -40 -10 -40 -13 0 -4 16 -22 35 -41
49 -48 67 -90 57 -136 -12 -58 -27 -52 -24 10 4 52 2 57 -38 100 -47 51 -60
56 -60 26 0 -30 -28 -80 -44 -80 -12 0 -12 5 0 30 26 52 28 95 6 132 -27 46
-34 82 -26 145 5 44 14 62 50 102 24 27 44 51 44 54 0 2 -13 10 -30 17 -16 7
-30 16 -30 21 0 12 3 12 50 -7 40 -16 40 -16 79 15 57 46 84 94 85 153 1 45
-3 53 -36 84 -26 23 -47 34 -68 34 -62 0 -120 -51 -120 -104 0 -31 45 -86 71
-86 27 0 59 35 59 65 0 20 -5 25 -26 25 -16 0 -24 5 -22 13 7 19 38 20 59 1
26 -23 24 -57 -5 -91 -19 -22 -32 -28 -65 -28 -56 0 -82 28 -89 94 -4 49 -3
52 37 92 22 23 41 43 41 46 0 2 -13 18 -29 34 -62 61 -52 188 22 292 24 34 47
72 51 85 6 19 4 22 -18 22 -78 0 -117 72 -85 157 13 34 26 43 61 43 49 0 81
-89 35 -98 -15 -3 -16 0 -6 22 15 31 -2 56 -37 56 -29 0 -44 -27 -44 -78 0
-50 25 -74 88 -80 46 -4 49 -3 90 42 36 39 42 52 42 90 0 116 -44 202 -114
226 -56 18 -119 -22 -118 -76 0 -27 24 -54 49 -54 20 0 28 30 14 52 -15 25 -7
35 14 18 25 -20 19 -69 -10 -82 -19 -9 -29 -7 -50 6 -61 40 -49 118 25 156 22
11 48 19 57 18 11 -2 17 7 20 37 5 44 29 92 55 108 26 17 88 -3 112 -36 19
-26 19 -30 5 -55 -16 -30 -52 -40 -75 -22 -22 19 -17 28 18 26 24 -1 33 4 36
18 4 21 -32 55 -59 56 -26 0 -60 -46 -66 -90 -6 -40 -4 -43 54 -99 92 -90 171
-94 254 -14 48 46 49 53 34 123 -7 31 -53 70 -84 70 -24 0 -51 -32 -51 -61 0
-36 15 -45 44 -25 27 17 39 11 26 -14 -17 -31 -50 -32 -81 0 -31 31 -31 44 5
93 24 33 75 37 122 8 25 -15 34 -31 44 -70 7 -28 15 -51 18 -51 4 0 34 21 67
47 133 104 258 111 338 17 l22 -25 38 50 c34 46 41 51 76 51 59 0 101 -39 101
-94 0 -55 -27 -86 -76 -86 -27 0 -37 5 -46 25 -11 25 2 55 24 55 6 0 6 -6 -1
-14 -17 -20 -3 -46 25 -46 46 0 73 81 37 112 -49 42 -93 33 -128 -26 -35 -59
-33 -109 4 -147 25 -25 37 -29 84 -29 46 0 60 5 96 33 67 53 73 65 55 122 -17
57 -17 65 -3 65 5 0 17 -16 25 -36 l15 -37 37 35 c41 38 112 84 112 72 0 -4 5
-3 12 4 16 16 51 15 92 -2z m-1488 -41 c21 -31 12 -42 -21 -27 -15 7 -25 20
-25 32 0 28 26 25 46 -5z m4664 10 c0 -8 -9 -24 -21 -36 -28 -28 -49 -11 -29
26 15 27 50 34 50 10z m-3142 -107 c14 -12 16 -48 2 -48 -5 0 -10 7 -10 15 0
24 -36 37 -54 19 -24 -23 -19 -62 10 -89 l27 -25 -26 0 c-16 0 -30 8 -37 19
-12 23 -13 91 -2 107 16 24 60 25 90 2z m1565 -275 c-3 -21 -19 -53 -36 -72
-34 -39 -77 -126 -77 -155 0 -28 45 -89 95 -130 48 -40 131 -83 141 -73 4 4
-13 29 -38 55 -25 27 -53 63 -62 80 -20 38 -21 102 -2 128 18 24 31 13 17 -14
-35 -66 23 -158 176 -274 60 -45 141 -140 149 -174 13 -51 -4 -44 -43 18 -48
77 -84 107 -178 144 -199 78 -308 199 -276 304 6 20 33 62 60 92 26 31 51 68
55 82 10 40 25 31 19 -11z m-1553 3 c0 -7 14 -25 30 -41 49 -47 90 -118 90
-156 0 -45 -44 -118 -102 -167 -45 -39 -155 -97 -230 -121 -42 -14 -111 -79
-139 -133 -10 -20 -23 -39 -29 -43 -14 -8 -13 31 2 58 19 38 102 125 150 159
148 107 205 198 168 269 -13 23 -7 25 14 3 39 -39 9 -129 -68 -204 -25 -24
-46 -47 -46 -51 0 -12 58 8 103 35 52 30 113 90 133 129 25 47 3 105 -73 200
-23 28 -33 94 -13 82 6 -3 10 -12 10 -19z m353 -83 c61 -119 12 -259 -110
-311 -27 -11 -82 -25 -123 -31 -85 -11 -189 -48 -268 -93 -59 -33 -77 -31 -43
6 34 37 112 66 245 92 156 31 223 63 254 123 36 70 38 116 8 190 -29 73 -31
84 -14 114 12 22 12 21 18 -8 4 -16 19 -53 33 -82z m887 78 c11 -21 8 -33 -22
-101 -24 -53 -21 -135 7 -193 26 -56 77 -84 201 -113 179 -42 237 -61 282 -94
66 -49 50 -54 -35 -12 -97 49 -156 68 -263 87 -111 19 -166 48 -212 110 -20
27 -35 51 -33 54 3 2 0 10 -6 18 -21 24 -13 88 20 157 17 36 31 75 31 86 0 25
16 26 30 1z m-639 -53 c7 -14 10 -50 6 -102 -12 -196 -97 -308 -275 -367 -37
-12 -72 -26 -79 -31 -6 -5 -20 -8 -30 -6 -10 1 -23 -1 -29 -5 -7 -4 -58 -9
-115 -13 -194 -11 -296 -41 -377 -110 -22 -19 -43 -34 -46 -34 -29 0 69 99
140 141 34 20 63 29 94 29 71 0 299 29 365 46 81 20 172 73 227 132 71 75 80
101 86 229 3 62 9 113 13 113 5 0 14 -10 20 -22z m358 -76 c2 -144 20 -188
102 -260 123 -108 221 -139 501 -161 140 -11 179 -27 261 -107 66 -65 76 -91
16 -42 -100 81 -151 100 -319 118 -170 18 -240 30 -321 56 -177 57 -244 141
-268 334 -11 87 -3 160 17 160 5 0 10 -44 11 -98z m1265 51 c-13 -30 -14 -60
-9 -158 l7 -122 -53 -84 c-48 -76 -53 -90 -53 -141 -1 -69 -15 -75 -42 -16
-24 52 -23 97 1 177 17 56 17 68 5 109 -29 103 -22 162 21 162 16 0 18 -3 9
-19 -13 -25 -13 -69 1 -145 10 -53 9 -66 -5 -93 -24 -47 -21 -75 6 -71 15 2
33 24 60 73 39 71 44 116 20 162 -17 33 -7 138 17 172 29 41 33 39 15 -6z
m-2499 -5 c4 -18 20 -54 36 -80 37 -57 45 -105 30 -161 -10 -34 -34 -64 -110
-140 -93 -92 -121 -135 -136 -200 -8 -39 -28 -29 -39 20 -10 46 9 94 69 177
29 40 35 57 35 98 0 33 -7 62 -20 84 -14 22 -17 35 -10 39 15 9 46 -29 60 -71
15 -43 6 -71 -54 -168 -43 -73 -72 -140 -44 -105 7 9 27 37 44 61 17 24 57 64
90 89 116 88 129 141 64 250 -41 66 -56 111 -45 129 12 19 23 10 30 -22z
m2109 -11 c-1 -23 -15 -56 -43 -97 -67 -102 -49 -174 65 -255 36 -26 75 -65
94 -95 53 -83 46 -49 -9 45 -44 74 -51 94 -51 138 0 52 28 117 50 117 15 0 12
-23 -11 -74 -26 -61 -19 -94 37 -169 58 -77 72 -124 53 -174 -8 -21 -19 -37
-24 -36 -5 1 -14 22 -20 47 -14 55 -48 100 -142 190 -83 79 -97 110 -91 199 3
46 11 73 31 102 15 22 30 55 33 73 9 43 29 35 28 -11z m-2490 -42 c7 -45 0
-108 -15 -135 -5 -9 -7 21 -6 70 1 47 -2 99 -6 115 -8 27 -7 28 6 12 8 -10 18
-38 21 -62z m906 -42 c0 -51 -9 -71 -57 -130 -23 -29 -42 -43 -58 -43 -21 0
-18 6 29 54 70 71 82 102 62 151 -21 50 -20 65 4 36 13 -15 20 -38 20 -68z
m1080 80 c0 -5 -7 -17 -15 -27 -38 -51 -10 -127 74 -203 33 -29 34 -32 14 -33
-38 0 -123 120 -123 175 0 33 26 95 39 95 6 0 11 -3 11 -7z m-1876 -75 c21
-30 20 -56 -5 -123 -20 -54 -20 -56 -3 -108 10 -29 18 -82 19 -119 0 -59 -3
-71 -26 -93 l-25 -26 4 35 c5 46 -13 99 -60 171 -44 69 -55 102 -39 118 8 8
11 6 11 -8 1 -11 16 -49 34 -85 23 -46 39 -66 54 -68 18 -3 22 2 22 22 0 14
-5 28 -11 32 -11 6 -8 79 7 192 4 27 2 48 -5 55 -6 6 -11 15 -11 19 0 16 19 8
34 -14z m1277 -259 c-20 -100 -25 -106 -133 -172 -59 -36 -139 -47 -413 -57
-330 -12 -362 -15 -420 -44 -52 -27 -59 -21 -12 11 45 31 99 40 282 47 342 14
492 34 575 76 52 27 96 88 111 156 17 74 25 60 10 -17z m79 12 c0 -8 12 -38
26 -67 32 -66 80 -96 196 -124 80 -19 124 -22 486 -35 79 -3 163 -10 186 -16
44 -11 116 -61 116 -81 0 -7 -10 -2 -23 10 -55 52 -170 69 -487 73 -166 2
-258 10 -317 28 -2 1 -4 0 -5 -1 -4 -3 -100 54 -135 80 -26 19 -35 36 -47 92
-9 38 -16 73 -16 77 0 14 20 -21 20 -36z m1618 -83 c2 -9 -9 -23 -25 -33 -48
-29 -76 -73 -81 -126 -7 -73 -22 -70 -22 4 0 52 5 71 26 103 45 68 94 93 102
52z m-3244 -32 c36 -44 59 -117 49 -157 -9 -32 -23 -21 -23 16 0 47 -30 103
-74 139 -42 35 -45 46 -12 46 17 0 36 -14 60 -44z m3416 15 c0 -12 -82 -121
-91 -121 -18 0 -60 -91 -67 -146 l-8 -59 -12 40 c-18 60 -1 105 71 186 34 39
68 80 76 90 14 20 31 25 31 10z m-3640 -9 c0 -5 24 -34 54 -64 81 -82 113
-162 90 -222 -8 -22 -26 -20 -23 2 1 9 1 19 0 22 -1 3 -4 22 -6 43 -4 39 -27
77 -80 135 -46 52 -66 92 -45 92 6 0 10 -4 10 -8z m3285 -13 c4 -5 -1 -19 -11
-31 -10 -11 -24 -32 -31 -46 -13 -26 -13 -25 -9 16 6 57 33 90 51 61z m-2921
-21 c9 -12 16 -36 15 -53 l-1 -30 -8 29 c-5 16 -19 39 -31 52 -18 20 -20 24
-6 24 9 0 23 -10 31 -22z m1350 -112 c-22 -25 -50 -49 -64 -52 -14 -4 -28 -11
-31 -17 -9 -13 -153 -11 -394 4 -217 13 -283 8 -374 -32 -24 -11 -46 -17 -49
-15 -9 10 52 56 87 67 64 19 278 22 456 6 94 -9 186 -12 205 -8 39 7 175 74
185 91 4 6 9 9 12 6 3 -3 -12 -25 -33 -50z m253 -14 c32 -14 61 -27 66 -28 4
-1 10 -3 15 -4 9 -3 -3 -3 257 15 296 20 420 6 483 -54 21 -21 29 -41 15 -41
-4 0 -25 9 -48 20 -77 37 -144 43 -395 34 -380 -14 -389 -13 -465 63 -51 51
-60 75 -16 43 17 -11 56 -33 88 -48z m-1540 -77 l17 -35 87 0 c65 0 92 -4 103
-15 8 -8 19 -15 24 -15 5 0 17 -15 27 -34 21 -40 16 -107 -11 -137 -24 -27
-31 -24 -53 19 -29 57 -96 111 -153 126 -16 3 -28 5 -28 2 0 -2 16 -37 35 -78
45 -93 48 -105 52 -203 3 -69 0 -85 -20 -120 -18 -33 -28 -40 -52 -40 -64 2
-88 114 -47 225 30 84 34 107 19 142 -15 35 -44 65 -53 55 -4 -3 -1 -20 5 -37
7 -22 7 -38 0 -51 -13 -25 -27 -24 -55 6 -52 56 -114 40 -182 -47 -85 -111
-118 -238 -110 -432 5 -117 30 -221 52 -221 5 0 17 23 28 50 20 48 20 53 5
130 -32 158 -16 273 43 330 37 35 37 29 3 -43 -22 -47 -28 -74 -31 -152 -4
-90 7 -150 26 -150 5 0 17 17 28 38 10 20 23 40 27 43 5 3 3 35 -3 69 -13 72
-8 114 22 177 19 40 53 72 64 60 3 -3 -9 -24 -25 -48 -27 -38 -31 -54 -33
-116 -1 -40 1 -75 5 -79 3 -4 18 1 32 10 39 26 33 -4 -15 -66 -43 -57 -110
-188 -130 -253 -6 -22 -15 -49 -19 -60 -29 -71 -70 -225 -105 -393 -74 -348
-113 -511 -152 -622 -51 -152 -67 -185 -138 -295 -63 -97 -119 -154 -200 -207
-53 -34 -61 -37 -65 -22 -2 12 13 32 43 57 35 30 46 46 46 68 0 33 -28 84 -59
105 -12 9 -19 19 -16 24 10 16 35 -2 66 -46 48 -70 102 -54 84 26 -6 29 -41
65 -94 96 -29 17 -56 52 -47 61 3 3 18 -4 33 -16 15 -12 44 -32 63 -44 19 -13
41 -35 48 -50 15 -30 36 -35 50 -11 22 40 -18 97 -117 165 -59 40 -98 85 -85
98 2 2 17 -7 32 -21 15 -14 53 -42 84 -61 32 -20 69 -55 84 -77 15 -22 32 -39
38 -37 20 6 39 53 33 78 -5 21 -125 130 -196 179 -11 8 -21 20 -21 27 0 6 -7
16 -15 20 -8 5 -24 37 -35 72 -22 69 -26 106 -10 96 5 -3 10 -14 10 -24 0 -46
246 -321 287 -321 15 0 43 51 43 79 0 11 -23 39 -52 66 -90 79 -187 195 -216
259 -35 75 -48 127 -57 231 -11 119 -12 128 -26 158 -14 30 -10 40 14 32 26
-11 36 -55 39 -180 3 -112 5 -125 35 -186 43 -86 141 -222 204 -281 28 -27 54
-48 57 -48 11 0 42 59 42 79 0 9 -32 48 -71 86 -186 184 -254 347 -229 546 6
46 14 138 17 205 4 101 3 126 -12 153 -13 25 -14 36 -5 45 17 16 38 -16 46
-71 4 -25 1 -123 -6 -218 -25 -330 -3 -402 183 -600 l85 -90 11 28 c6 16 14
45 17 66 6 37 4 40 -89 130 -120 116 -138 151 -144 286 -3 56 0 131 6 170 7
39 16 102 22 140 16 120 20 136 30 130 15 -10 10 -82 -12 -168 -29 -109 -32
-313 -6 -370 17 -39 144 -213 172 -237 19 -16 25 -10 41 37 14 41 15 39 -37
109 -21 28 -53 82 -71 120 -42 92 -43 168 -2 319 24 92 29 129 29 225 0 87 -5
123 -17 147 -25 50 -32 93 -15 93 18 0 32 -31 47 -106 17 -81 6 -236 -25 -349
-23 -87 -31 -161 -22 -215 14 -77 102 -250 128 -250 7 0 21 41 25 77 2 12 7
31 13 41 8 16 3 36 -25 98 -20 42 -43 113 -52 156 -16 76 -16 82 7 216 56 324
55 363 -11 502 -55 115 -71 161 -62 184 5 14 9 15 15 4 5 -7 9 -23 9 -36 0
-12 24 -69 54 -125 56 -105 65 -142 66 -257 1 -75 -1 -92 -24 -177 -9 -34 -19
-77 -22 -95 -9 -52 -4 -208 7 -268 12 -60 44 -130 59 -130 10 0 29 62 36 122
4 31 0 45 -20 69 -30 36 -41 84 -27 122 18 46 31 31 31 -36 0 -50 4 -68 19
-81 18 -17 20 -17 29 1 5 10 15 41 21 70 10 48 8 56 -18 115 -40 86 -55 203
-48 354 6 122 14 153 65 249 37 71 192 249 192 222 0 -34 39 -16 85 38 26 30
54 55 61 55 8 0 22 -16 31 -35z m2811 17 c9 -10 34 -37 55 -60 40 -44 57 -52
57 -27 0 27 17 16 67 -42 173 -205 193 -253 193 -468 0 -124 -16 -229 -50
-317 -19 -50 -20 -64 -11 -114 6 -32 11 -59 11 -61 0 -2 6 -3 14 -3 25 0 38
29 39 90 2 63 15 74 29 25 10 -38 -6 -96 -32 -120 -23 -21 -24 -38 -8 -117 7
-34 17 -58 25 -58 32 0 68 105 78 229 3 47 -3 103 -25 213 -32 157 -38 276
-19 358 5 25 32 83 58 130 27 47 52 102 55 123 8 43 26 50 26 9 0 -40 -31
-123 -80 -217 l-42 -80 5 -115 c4 -68 17 -162 33 -230 21 -95 25 -128 19 -190
-7 -79 -32 -164 -70 -240 -23 -46 -23 -49 -9 -106 8 -32 17 -65 20 -73 14 -41
115 131 133 226 11 58 0 166 -25 248 -14 46 -18 95 -18 205 -1 133 1 149 23
193 41 83 56 52 20 -43 -13 -33 -23 -89 -26 -141 -5 -84 -1 -111 54 -334 4
-16 7 -59 7 -95 1 -86 -30 -154 -139 -306 -12 -16 -13 -28 -6 -45 5 -13 12
-33 15 -43 6 -18 8 -18 33 5 32 30 120 148 155 209 25 43 26 50 23 180 -3 85
-12 173 -25 238 -17 84 -18 106 -8 125 12 21 12 21 16 2 1 -11 7 -29 12 -40
22 -52 43 -266 37 -379 -7 -155 -27 -196 -142 -303 -70 -66 -85 -85 -85 -110
0 -50 12 -93 25 -93 23 0 169 165 208 236 63 113 79 249 54 449 -18 136 -18
166 -2 220 14 48 36 77 50 64 2 -2 -3 -33 -12 -69 -16 -69 -13 -169 8 -321 15
-109 -1 -229 -41 -309 -41 -81 -75 -127 -171 -232 -60 -66 -79 -93 -79 -115 0
-41 11 -73 24 -73 36 0 206 213 264 328 34 70 36 81 42 200 6 127 18 172 45
172 19 0 19 -9 1 -51 -7 -19 -16 -78 -20 -131 -12 -187 -56 -277 -217 -442
-60 -62 -109 -121 -109 -130 0 -23 28 -76 41 -76 9 0 40 26 108 91 76 73 171
202 171 233 0 12 5 28 10 36 9 13 11 13 20 0 13 -20 13 -47 0 -55 -6 -4 -8
-10 -5 -15 8 -14 -21 -77 -56 -122 -18 -21 -61 -63 -98 -92 -121 -97 -133
-111 -129 -152 4 -47 34 -69 52 -39 20 35 95 104 135 125 22 11 46 29 55 41 8
12 20 19 26 17 20 -6 -36 -64 -99 -103 -75 -45 -113 -94 -109 -138 4 -44 32
-48 57 -6 11 17 35 41 54 53 19 11 47 29 61 40 15 10 29 16 32 13 12 -11 -18
-48 -55 -66 -99 -51 -136 -161 -54 -161 16 0 27 9 37 33 14 36 60 72 77 61 6
-4 -1 -18 -19 -35 -42 -42 -64 -92 -53 -121 5 -13 27 -36 49 -52 42 -29 58
-51 42 -61 -13 -8 -76 27 -148 84 -76 59 -148 172 -224 351 -53 126 -83 226
-118 395 -15 77 -44 217 -63 310 -48 231 -69 311 -117 438 -50 133 -97 229
-144 290 -38 50 -46 73 -21 63 8 -3 22 -9 30 -12 13 -5 15 6 15 68 0 65 -4 80
-31 122 -16 27 -28 50 -27 52 2 2 13 1 24 -2 26 -7 74 -103 74 -148 0 -18 -5
-57 -10 -86 -9 -49 -8 -57 15 -97 37 -62 52 -56 60 21 9 84 -1 158 -31 225
-13 30 -22 56 -20 59 14 13 40 -14 63 -65 33 -75 39 -158 19 -253 -20 -93 -19
-114 3 -170 l18 -44 17 33 c18 34 21 43 37 121 12 57 -4 264 -27 340 -25 84
-68 161 -116 207 -42 40 -44 41 -87 33 -31 -5 -51 -16 -64 -34 -36 -50 -65
-21 -52 54 8 45 -2 51 -31 19 -27 -30 -25 -105 6 -202 22 -70 23 -82 12 -125
-17 -61 -42 -87 -76 -78 -85 21 -88 229 -6 370 32 54 35 65 22 68 -33 8 -182
-106 -182 -138 0 -22 -21 -27 -40 -9 -44 40 -32 135 22 181 31 25 36 26 120
22 83 -5 88 -4 94 16 7 24 33 56 46 56 4 0 16 -8 26 -18z m-1924 -37 c143 -19
316 -102 316 -152 0 -27 -82 -15 -136 19 -66 42 -192 93 -284 115 -71 17 -73
18 -40 24 35 6 51 6 144 -6z m446 1 c0 -22 -27 -38 -57 -34 -25 4 -26 5 -8 13
11 5 24 14 28 22 11 17 37 17 37 -1z m130 -11 l34 -25 -32 0 c-21 0 -35 6 -42
19 -21 39 -8 41 40 6z m578 13 c-3 -7 -31 -18 -64 -24 -103 -21 -178 -52 -328
-132 -37 -20 -78 -21 -99 -2 -12 10 42 59 93 85 46 23 168 60 228 69 19 2 36
7 40 10 3 3 34 6 70 6 46 0 63 -3 60 -12z m-2466 -25 c47 -50 63 -203 22 -203
-13 0 -15 8 -9 49 5 38 2 59 -15 100 -13 28 -26 51 -30 51 -4 0 -10 7 -14 15
-9 25 18 17 46 -12z m3625 -20 c-28 -42 -32 -57 -33 -118 -1 -52 -5 -70 -15
-70 -27 0 -33 50 -15 119 20 74 48 116 76 116 17 0 16 -6 -13 -47z m-2547 -2
c33 -24 38 -66 10 -81 -28 -15 -66 -5 -109 28 -26 19 -50 27 -93 30 -32 3 -58
8 -58 12 0 4 17 15 38 24 50 22 176 14 212 -13z m1649 17 c34 -12 50 -25 51
-39 0 -4 -32 -9 -71 -11 -60 -3 -74 -8 -90 -27 -24 -30 -98 -41 -118 -18 -22
27 19 81 74 99 34 11 117 9 154 -4z m-1359 -99 c237 -86 380 -204 380 -314 0
-44 -19 -46 -76 -7 -43 28 -85 75 -141 155 -36 52 -86 91 -190 149 -107 59
-100 64 27 17z m955 13 c-17 -9 -57 -30 -90 -47 -63 -32 -155 -116 -220 -203
-41 -55 -116 -112 -146 -112 -52 0 -17 112 58 181 76 71 143 106 313 166 107
37 129 41 85 15z m-1529 -64 c49 -96 43 -264 -9 -256 -38 5 -48 43 -44 163 4
98 11 145 23 145 2 0 16 -24 30 -52z m2063 -105 c1 -119 -8 -153 -42 -153 -67
0 -61 182 9 288 l18 27 7 -30 c4 -16 7 -76 8 -132z m-1694 106 c46 -13 105
-68 105 -98 0 -50 -53 -35 -173 46 -46 32 -63 49 -55 55 18 11 76 10 123 -3z
m1405 -6 c-1 -12 -76 -63 -94 -63 -8 0 -18 -5 -22 -11 -6 -11 -88 -49 -105
-49 -5 0 -9 13 -9 28 0 31 38 74 80 91 29 11 150 14 150 4z m-1628 -140 c23
-40 42 -106 55 -189 5 -34 -15 -58 -44 -52 -9 2 -28 19 -41 38 -22 32 -24 42
-19 122 7 115 18 133 49 81z m271 -25 c20 -20 41 -54 52 -87 16 -49 16 -54 1
-69 -15 -15 -17 -15 -32 0 -13 13 -94 190 -94 206 0 8 42 -22 73 -50z m1241
25 c-4 -15 -25 -65 -46 -111 -34 -70 -43 -83 -61 -80 -19 3 -22 8 -18 43 5 57
35 111 83 145 22 17 43 30 45 30 2 0 0 -12 -3 -27z m250 -10 c10 -65 7 -153
-8 -181 -20 -39 -50 -64 -70 -56 -19 7 -21 49 -6 138 9 56 50 136 69 136 5 0
11 -17 15 -37z m-1272 -17 c57 -44 94 -102 77 -122 -22 -27 -40 -14 -70 51
-17 36 -34 65 -38 65 -3 0 -12 9 -19 20 -18 29 -1 24 50 -14z m787 11 c-15
-12 -41 -50 -58 -84 -22 -44 -37 -63 -50 -63 -55 0 -18 81 62 135 58 39 86 46
46 12z m-1134 -148 c35 -33 54 -42 83 -43 33 -1 38 -5 48 -36 15 -43 3 -60
-40 -60 -44 0 -87 30 -124 86 -31 46 -42 94 -22 94 6 0 31 -19 55 -41z m1490
2 c-17 -69 -83 -134 -147 -146 -30 -6 -38 -4 -47 13 -8 15 -8 29 0 49 13 36
28 44 61 37 23 -4 36 2 75 39 51 48 69 51 58 8z m-1139 -33 c47 -50 64 -80 64
-110 0 -21 -5 -28 -20 -28 -14 0 -22 10 -29 38 -6 20 -23 57 -39 82 -48 76
-46 73 -26 62 11 -6 33 -25 50 -44z m784 38 c0 -2 -15 -29 -34 -61 -19 -31
-38 -70 -41 -85 -3 -16 -13 -31 -21 -34 -17 -7 -19 38 -3 81 15 40 99 124 99
99z m-527 -63 c45 -48 67 -110 67 -193 0 -79 -23 -140 -54 -140 -24 0 -78 96
-83 148 l-4 47 15 -33 c31 -67 78 -48 78 33 0 34 -9 66 -30 107 -33 63 -30 73
11 31z m217 -46 c-16 -37 -30 -80 -30 -97 0 -73 48 -95 77 -35 22 46 37 45 28
-2 -7 -43 -43 -109 -74 -137 -17 -15 -24 -16 -35 -7 -42 35 -53 177 -19 251
20 45 70 106 79 98 2 -3 -9 -35 -26 -71z m-1360 -80 c0 -104 -3 -137 -16 -155
-21 -31 -40 -27 -53 9 -16 47 -13 99 10 175 45 147 59 140 59 -29z m2533 96
c27 -69 47 -146 47 -184 0 -44 -18 -89 -35 -89 -19 0 -38 27 -41 58 -2 15 -6
44 -10 65 -8 45 4 187 16 187 4 0 15 -17 23 -37z m-213 -166 c-16 -55 -106
-118 -125 -87 -8 14 12 48 57 98 46 50 67 96 70 149 1 21 4 2 6 -42 2 -44 -2
-97 -8 -118z m-2140 119 c0 -14 24 -52 60 -95 58 -70 78 -121 46 -121 -23 0
-79 44 -98 76 -22 38 -37 164 -19 164 6 0 11 -11 11 -24z m171 -118 c5 -20 35
-69 66 -108 44 -57 53 -74 42 -81 -22 -14 -34 -11 -63 16 -49 46 -76 120 -75
210 1 74 2 77 11 40 5 -22 14 -57 19 -77z m496 83 c34 -31 76 -113 71 -138 -6
-31 -28 -24 -44 14 -8 21 -29 64 -45 96 -15 31 -25 57 -21 57 4 0 22 -13 39
-29z m847 14 c-4 -8 -11 -12 -16 -9 -6 4 -5 10 3 15 19 12 19 11 13 -6z m484
-77 c-6 -94 -31 -158 -79 -196 -27 -22 -59 -24 -59 -5 0 5 18 32 39 61 41 54
81 146 81 186 0 21 7 36 18 36 2 0 2 -37 0 -82z m-2338 62 c0 -5 -18 -19 -41
-31 -23 -11 -61 -39 -85 -61 -24 -22 -44 -35 -44 -29 0 16 78 99 109 115 31
17 61 20 61 6z m2907 -19 c40 -29 90 -97 80 -108 -3 -3 -24 13 -47 35 -23 22
-59 48 -81 57 -21 10 -39 24 -39 32 0 22 45 14 87 -16z m-1097 -30 c0 -20 -37
-105 -48 -109 -17 -5 -16 50 2 93 11 25 19 33 30 29 9 -3 16 -9 16 -13z m366
-55 c-3 -35 -13 -87 -22 -115 -24 -82 -106 -159 -129 -121 -7 12 9 45 42 84
34 40 69 114 78 161 8 46 12 55 27 55 7 0 9 -21 4 -64z m-1501 -2 c17 -60 29
-82 82 -153 34 -45 44 -91 19 -91 -24 0 -61 37 -83 82 -36 76 -43 99 -50 159
-8 77 10 78 32 3z m-437 -122 c-2 -109 -6 -145 -18 -156 -49 -49 -61 103 -19
236 13 42 28 73 32 69 5 -5 7 -72 5 -149z m722 118 c22 -22 43 -54 47 -71 3
-16 10 -32 14 -35 16 -10 9 -61 -12 -88 -32 -41 -45 -33 -52 29 -3 31 -15 70
-26 88 -15 25 -18 36 -9 45 8 8 7 18 -6 36 -33 52 -9 49 44 -4z m960 33 c-1
-5 -7 -19 -14 -32 -7 -13 -11 -32 -9 -42 3 -10 -4 -38 -15 -61 -12 -24 -24
-60 -27 -80 -13 -70 -54 -33 -54 47 0 58 10 79 63 135 35 37 56 50 56 33z
m704 -73 c38 -115 33 -250 -8 -250 -36 0 -50 83 -41 225 4 58 11 105 15 105 4
0 19 -36 34 -80z m-564 -3 c0 -58 -73 -167 -111 -167 -32 0 -29 17 10 66 21
27 48 71 59 97 23 53 42 54 42 4z m852 31 c25 -9 91 -86 117 -135 17 -33 13
-51 -6 -23 -31 48 -78 92 -130 121 -29 17 -53 34 -53 39 0 11 38 10 72 -2z
m-2977 -24 c-47 -25 -125 -96 -125 -115 0 -5 -4 -9 -10 -9 -16 0 -11 13 26 63
41 56 87 87 129 86 28 0 27 -1 -20 -25z m864 -11 c11 -21 38 -60 60 -87 46
-54 51 -76 20 -76 -34 0 -85 60 -103 120 -9 29 -16 60 -16 67 0 25 20 13 39
-24z m475 -102 c31 -62 23 -164 -18 -227 -21 -31 -36 -30 -68 4 -50 54 -73
103 -78 167 -5 54 14 64 24 12 14 -74 69 -102 102 -52 17 26 16 86 -2 130 -7
18 -6 19 10 6 9 -8 23 -26 30 -40z m312 22 c-17 -59 -17 -94 -2 -118 20 -31
46 -32 73 -2 22 24 45 82 36 91 -4 3 -1 6 5 6 19 0 14 -90 -8 -138 -23 -52
-66 -108 -87 -116 -22 -9 -40 9 -63 62 -33 73 -23 162 22 220 15 18 30 15 24
-5z m-1593 -75 c-10 -11 -64 -42 -121 -69 -94 -44 -105 -52 -135 -100 -39 -63
-51 -42 -15 29 28 57 69 85 159 112 37 11 78 29 91 39 29 24 45 16 21 -11z
m2546 -25 c11 -66 -6 -150 -45 -219 -44 -79 -70 -86 -79 -21 -11 70 -3 122 18
122 30 0 54 39 67 110 14 72 28 75 39 8z m370 1 c44 -9 135 -46 155 -63 38
-33 73 -131 47 -131 -6 0 -22 24 -38 53 -26 49 -34 55 -129 102 -103 51 -134
70 -134 86 0 5 17 -3 37 -17 20 -13 48 -27 62 -30z m-2594 -11 c8 -58 28 -91
61 -103 21 -8 24 -16 25 -62 1 -29 0 -57 -1 -63 -1 -5 -3 -17 -5 -25 -1 -8
-10 -15 -21 -15 -29 0 -87 121 -92 195 -5 66 5 133 17 125 5 -2 12 -26 16 -52z
m-270 -53 c-24 -53 -97 -112 -204 -162 -46 -22 -104 -58 -128 -80 -29 -28 -43
-35 -43 -25 0 33 58 83 137 116 95 42 136 70 173 125 16 22 37 52 46 64 27 39
41 11 19 -38z m2750 38 c9 -13 30 -44 46 -70 27 -42 44 -54 142 -103 122 -60
145 -76 166 -117 23 -44 7 -43 -46 4 -27 24 -88 63 -137 88 -131 67 -206 140
-206 200 0 26 15 26 35 -2z m-1365 -20 c0 -18 -5 -40 -10 -48 -19 -29 -39 25
-24 64 11 29 34 18 34 -16z m-960 -52 c0 -43 29 -119 56 -147 47 -49 74 -35
74 36 0 54 18 50 35 -7 17 -58 19 -133 6 -192 -15 -62 -26 -65 -72 -21 -85 83
-139 222 -125 319 7 46 26 55 26 12z m1898 -70 c-3 -60 -11 -95 -30 -136 -31
-66 -115 -173 -131 -167 -19 6 -36 67 -36 133 -1 62 25 164 41 164 4 0 8 -20
8 -45 0 -110 95 -43 122 86 6 32 16 55 21 52 5 -3 7 -42 5 -87z m-1271 34 c37
-74 40 -129 9 -193 -14 -30 -33 -58 -42 -61 -21 -8 -66 32 -99 89 -23 39 -50
133 -41 142 3 3 16 -18 30 -46 24 -47 29 -51 61 -51 29 0 37 5 46 28 10 25 5
94 -8 130 -14 35 24 3 44 -38z m651 2 c-14 -54 3 -118 33 -127 29 -9 69 20 88
66 17 41 38 54 26 17 -3 -13 -11 -41 -16 -63 -10 -41 -70 -129 -100 -148 -33
-21 -89 69 -89 142 0 20 2 21 15 11 13 -11 14 -7 10 29 -4 30 0 52 16 82 25
50 31 47 17 -9z m-1659 -45 c-30 -57 -79 -84 -176 -96 -94 -12 -128 -26 -178
-76 -35 -36 -45 -41 -45 -27 0 13 72 82 100 97 14 7 63 21 110 30 103 22 132
35 160 75 24 34 47 32 29 -3z m2665 8 c22 -34 63 -53 153 -71 90 -18 142 -45
197 -103 53 -54 37 -66 -17 -13 -52 51 -90 67 -192 81 -86 12 -132 36 -159 82
-29 49 -13 71 18 24z m-1357 -16 c8 -8 17 -8 31 0 33 17 77 13 98 -10 17 -19
17 -23 3 -47 -8 -15 -23 -28 -32 -30 -16 -3 -17 -1 -6 16 24 39 -21 83 -47 47
-32 -44 -5 -148 46 -175 11 -6 44 -10 73 -8 46 3 53 6 61 30 7 19 6 31 -4 43
-13 16 -16 15 -33 -6 -15 -19 -20 -20 -28 -8 -12 20 -12 24 11 44 17 15 24 16
45 7 30 -14 49 -56 40 -90 -8 -32 -85 -66 -131 -58 -18 4 -50 22 -70 41 -20
19 -40 35 -44 35 -3 0 -17 -12 -31 -26 -36 -39 -78 -54 -124 -44 -74 17 -104
77 -62 126 22 25 27 27 51 16 29 -13 38 -62 11 -62 -8 0 -15 7 -15 16 0 25
-35 12 -38 -14 -4 -27 23 -62 48 -62 35 0 109 32 123 53 46 71 12 196 -40 145
-13 -14 -13 -18 2 -42 15 -23 15 -26 2 -26 -15 0 -47 36 -47 52 0 5 9 17 20
28 22 22 69 27 87 9z m-644 -118 c9 -7 26 -9 41 -5 20 5 27 14 32 43 11 58 21
71 28 31 21 -140 15 -181 -38 -229 -25 -24 -26 -24 -46 -6 -32 29 -79 135 -84
189 -7 75 3 86 30 34 12 -24 29 -50 37 -57z m1382 22 c-3 -25 -15 -64 -25 -87
-19 -45 -75 -116 -91 -116 -5 0 -23 21 -39 47 -26 41 -30 56 -30 119 0 81 6
104 26 104 9 0 14 -12 14 -33 0 -43 29 -72 63 -63 17 4 31 21 47 58 19 44 24
49 32 34 6 -10 7 -38 3 -63z m-1835 -83 c0 -5 -13 -16 -30 -25 -23 -12 -71
-15 -242 -15 l-214 0 -73 -45 c-41 -25 -76 -43 -79 -40 -8 8 68 84 103 103 25
14 72 18 270 23 132 3 246 6 253 7 6 1 12 -2 12 -8z m2555 -3 c125 -3 167 -7
192 -20 37 -20 119 -95 111 -102 -3 -3 -36 14 -74 37 l-69 43 -220 2 c-217 2
-275 9 -275 36 0 10 20 12 88 10 48 -1 159 -4 247 -6z m-2699 -120 c16 -16
-12 -20 -168 -24 -174 -5 -206 -11 -277 -53 -71 -41 -82 -44 -70 -16 14 31 76
64 158 87 52 14 96 18 208 16 78 -1 145 -6 149 -10z m2935 -29 c52 -24 111
-79 91 -86 -4 -1 -42 17 -82 40 l-74 43 -169 2 c-173 2 -207 6 -207 25 0 6 65
9 193 6 181 -4 195 -5 248 -30z m-2668 6 c11 -12 -25 -53 -74 -85 l-50 -32
-212 9 c-304 12 -287 14 -405 -64 -29 -19 -55 -32 -58 -29 -20 20 85 103 158
125 13 4 136 7 273 7 269 0 299 5 330 51 16 24 26 29 38 18z m2026 -34 c24
-17 51 -31 60 -32 9 -1 131 -2 271 -2 l255 -1 63 -34 c65 -35 112 -85 95 -102
-5 -5 -29 6 -58 27 -28 20 -72 47 -100 60 -48 22 -55 23 -170 14 -166 -13
-352 -12 -378 1 -43 22 -113 99 -90 99 4 0 28 -14 52 -30z m-784 -44 c123 -30
167 -46 242 -87 209 -115 359 -271 462 -478 45 -91 55 -117 76 -197 59 -237
30 -523 -75 -739 -131 -272 -371 -478 -652 -559 -396 -115 -791 -16 -1074 268
-169 171 -259 341 -299 566 -26 145 -17 339 22 485 20 75 88 220 145 305 87
133 267 289 424 368 58 30 156 61 254 83 120 26 335 20 475 -15z m-1029 -31
c18 -14 17 -14 -14 -15 -18 0 -48 -6 -67 -14 -18 -8 -36 -12 -38 -9 -8 7 -87
-46 -147 -99 -117 -104 -242 -156 -342 -143 -90 12 -86 23 8 22 80 -1 97 2
145 26 30 15 83 52 119 82 148 124 175 144 209 153 55 15 105 14 127 -3z
m1709 -19 c28 -13 64 -38 80 -56 44 -47 144 -124 190 -147 63 -31 132 -45 192
-37 32 4 53 3 53 -4 0 -12 -57 -22 -127 -22 -66 0 -183 58 -279 139 -105 89
-119 96 -191 110 -88 16 -95 19 -88 31 12 20 117 11 170 -14z m767 -85 c38
-12 87 -46 78 -54 -3 -3 -39 4 -80 15 -63 16 -94 19 -192 14 -111 -6 -140 -1
-106 20 40 25 223 28 300 5z m-3109 -6 c39 -16 16 -27 -45 -20 -90 11 -184 7
-258 -9 -36 -8 -67 -12 -68 -11 -5 4 55 35 88 46 30 10 257 5 283 -6z m3195
-96 c17 -6 32 -14 32 -17 0 -4 -54 -7 -120 -8 -66 0 -120 2 -120 6 0 3 21 14
48 22 48 16 102 15 160 -3z m-3409 0 c48 -17 38 -31 -16 -22 -27 4 -77 7 -112
6 -59 -2 -73 9 -26 20 38 9 122 7 154 -4z m111 -40 c-15 -36 -92 -105 -140
-126 -19 -8 -69 -21 -110 -29 -41 -8 -92 -21 -113 -29 -44 -18 -47 -18 -47 -5
0 5 14 16 30 25 17 9 30 13 30 10 0 -3 10 0 23 7 12 7 52 20 88 29 123 32 179
66 219 133 26 43 39 33 20 -15z m3052 -9 c35 -49 107 -85 244 -125 64 -18 121
-38 127 -44 21 -21 -4 -23 -55 -4 -29 11 -82 26 -118 33 -132 24 -240 104
-240 177 0 19 3 16 42 -37z m-3264 -26 c38 -11 24 -23 -25 -23 -27 0 -60 -3
-75 -7 -21 -5 -28 -3 -28 9 0 8 6 18 13 20 17 8 88 8 115 1z m3547 -4 c44 -17
21 -25 -60 -22 -43 2 -73 7 -69 12 21 19 91 25 129 10z m-2858 -57 c6 -16 -55
-50 -117 -64 -72 -17 -273 -17 -325 0 -77 25 -95 34 -95 49 0 16 9 15 130 -12
36 -9 110 -15 165 -15 90 0 106 3 160 29 62 29 76 32 82 13z m2148 -17 c81
-34 238 -36 363 -5 84 22 104 21 83 -4 -20 -25 -168 -50 -301 -51 -114 -1
-129 1 -175 24 -36 18 -51 32 -53 49 -3 17 0 22 10 18 7 -3 40 -17 73 -31z
m-2575 -110 c52 -34 51 -49 -2 -23 -30 15 -59 20 -107 19 -130 -2 -209 21 -89
27 29 1 55 5 58 8 13 13 103 -6 140 -31z m3169 18 c11 -10 -12 -13 -104 -15
-55 -1 -106 -6 -112 -11 -7 -6 -13 -7 -13 -3 0 3 -17 -4 -37 -16 l-38 -23 20
23 c26 29 52 43 95 50 35 6 182 2 189 -5z m194 -45 c59 -15 43 -20 -47 -13
-74 6 -93 4 -145 -16 -34 -12 -81 -40 -106 -62 -44 -39 -63 -44 -52 -14 10 26
117 99 165 112 47 13 115 10 185 -7z m-3586 -10 c51 -25 141 -104 131 -114 -4
-5 -27 10 -52 33 -71 66 -185 94 -294 73 -53 -11 -42 5 13 18 73 17 155 13
202 -10z m3650 -64 c20 -8 34 -17 32 -19 -2 -2 -42 -5 -89 -7 -47 -1 -91 -7
-97 -12 -7 -5 -13 -6 -13 -1 0 4 -12 -4 -27 -18 -37 -34 -83 -63 -83 -51 0 36
96 103 164 114 65 10 75 10 113 -6z m-3769 -15 c57 -20 128 -80 103 -88 -12
-4 -30 7 -84 50 -24 19 -43 24 -118 26 -49 2 -89 8 -89 12 0 25 117 25 188 0z
m-17 -101 c32 -20 59 -29 87 -29 42 0 56 -13 26 -24 -28 -11 -59 -6 -99 15
-22 12 -51 27 -65 35 -32 17 -71 20 -130 10 -35 -6 -42 -5 -33 4 36 38 146 32
214 -11z m3828 28 c13 -6 22 -16 20 -22 -4 -11 -21 -11 -84 0 -34 6 -50 2
-108 -29 -64 -34 -106 -43 -141 -30 -22 8 -11 23 13 17 17 -4 41 5 136 56 45
24 126 28 164 8z m-3213 -82 c59 -63 58 -153 -2 -223 -18 -22 -34 -44 -34 -49
0 -5 13 -22 30 -38 33 -31 57 -115 46 -159 -8 -32 -26 -25 -20 7 5 33 -32 129
-59 149 -28 22 -89 32 -196 32 -78 1 -85 -1 -102 -24 -28 -39 -34 -92 -12
-118 19 -23 62 -35 82 -22 22 13 8 45 -18 45 -28 0 -39 20 -16 28 40 16 91
-37 65 -67 -21 -26 -69 -40 -96 -27 -48 21 -60 89 -29 164 7 16 -2 17 -99 17
l-105 0 -16 -30 c-22 -43 -19 -80 12 -112 33 -35 78 -38 89 -6 8 26 -21 51
-49 42 -14 -4 -18 -2 -15 7 13 38 88 9 88 -34 0 -28 -29 -57 -56 -57 -79 0
-126 82 -94 164 l10 26 -85 1 c-162 3 -160 3 -173 -26 -18 -39 -15 -99 6 -118
27 -24 76 -26 86 -2 7 19 -20 46 -39 39 -9 -4 -15 0 -15 10 0 19 40 22 58 4 7
-7 12 -27 12 -45 0 -68 -83 -70 -128 -3 -24 35 -24 42 -6 124 l7 28 -99 -2
c-122 -3 -124 -3 -124 14 0 20 26 27 56 16 36 -14 141 -13 150 2 4 6 6 39 5
73 -2 59 0 64 29 89 38 31 73 33 100 6 23 -23 24 -29 10 -64 -11 -29 -41 -34
-60 -11 -11 13 -9 15 11 13 20 -3 24 2 24 22 0 21 -5 25 -30 27 -46 4 -70 -20
-70 -70 0 -24 8 -55 17 -69 18 -27 33 -28 238 -19 13 1 15 12 12 65 -4 59 -2
67 21 90 33 33 86 35 112 5 18 -19 18 -22 3 -47 -16 -27 -58 -43 -58 -23 0 6
9 11 21 11 16 0 20 5 17 28 -3 23 -8 27 -40 30 -30 3 -40 -1 -54 -23 -19 -30
-15 -79 12 -120 16 -25 19 -26 108 -23 l91 3 -3 71 c-4 67 -2 72 23 93 66 51
159 -9 112 -73 -16 -22 -60 -18 -65 5 -2 11 4 15 20 15 16 -1 23 5 23 18 0 26
-26 40 -58 32 -35 -8 -51 -62 -34 -114 l12 -37 80 -6 c217 -17 270 13 270 155
0 51 -4 61 -28 82 -39 33 -78 31 -122 -7 -21 -18 -35 -26 -35 -18 1 35 55 69
109 69 26 0 42 -8 67 -35z m2553 7 c14 -10 30 -35 35 -54 20 -78 -63 -159
-114 -113 -29 26 -26 71 5 91 32 21 44 11 21 -15 -21 -23 -18 -65 6 -69 37 -7
82 73 61 107 -5 9 -25 26 -44 39 -39 27 -72 23 -109 -14 -21 -20 -25 -33 -25
-84 0 -68 21 -105 76 -132 26 -14 59 -18 146 -18 109 0 112 1 132 26 25 32 28
90 5 122 -23 33 -79 28 -79 -8 0 -17 7 -26 25 -30 l25 -6 -22 -12 c-28 -15
-52 -6 -59 23 -14 54 39 86 101 61 47 -20 58 -77 30 -148 -7 -16 2 -18 98 -18
l105 0 11 31 c19 55 9 110 -23 131 -7 5 -5 8 5 8 35 0 52 -36 47 -104 l-4 -64
116 -4 c127 -4 135 -1 146 59 9 46 -2 80 -30 99 -20 12 -29 13 -46 4 -29 -16
-24 -56 8 -53 27 3 28 -3 3 -17 -26 -14 -48 -4 -55 26 -14 53 34 83 92 58 42
-17 54 -46 50 -118 l-3 -61 67 -3 c37 -2 77 2 88 8 27 14 62 3 58 -18 -3 -15
-17 -17 -111 -13 l-107 3 6 -69 c6 -68 6 -70 -26 -106 -37 -42 -69 -48 -100
-17 -42 42 -7 124 45 104 24 -10 18 -34 -9 -34 -24 0 -41 -23 -30 -41 7 -11
55 -12 72 0 34 21 30 132 -6 149 -25 12 -219 14 -227 2 -3 -5 -1 -27 5 -49 19
-72 -26 -141 -91 -141 -32 0 -41 5 -54 29 -14 28 -13 31 15 61 30 32 55 36 55
9 0 -8 -11 -16 -25 -18 -42 -5 -52 -34 -19 -51 28 -16 78 5 90 38 12 30 2 91
-19 115 -12 14 -32 17 -98 17 -46 0 -86 -5 -89 -10 -4 -6 -10 -8 -15 -5 -5 3
-3 -10 5 -29 20 -48 19 -85 -6 -125 -19 -31 -23 -33 -60 -28 -22 3 -46 11 -54
17 -19 16 -19 64 -1 80 20 16 60 9 64 -12 3 -14 -3 -18 -27 -18 -24 0 -31 -4
-31 -19 0 -29 47 -37 79 -13 33 24 37 60 13 116 l-20 44 -68 -4 c-165 -10
-186 -13 -209 -28 -31 -20 -60 -77 -69 -133 -5 -35 -2 -46 19 -71 32 -38 67
-47 104 -27 63 32 81 101 35 131 -24 16 -26 16 -42 0 -14 -13 -14 -20 -4 -36
16 -26 15 -40 -3 -40 -14 0 -45 48 -45 69 0 5 15 22 34 36 41 31 65 24 96 -28
26 -42 25 -76 -2 -117 -43 -64 -149 -62 -188 3 -38 61 -15 195 39 229 27 17
27 20 -8 57 -52 56 -64 140 -29 215 25 56 110 71 167 28z m-3419 8 c12 -7 12
-12 3 -21 -9 -9 -16 -9 -26 -1 -8 7 -17 9 -20 5 -4 -3 -7 -2 -7 4 0 23 24 30
50 13z m4187 -6 c2 -6 -9 -14 -24 -17 -33 -6 -38 -3 -29 18 7 18 47 17 53 -1z
m-3377 -104 c13 -24 5 -45 -26 -65 -30 -19 -59 -12 -78 18 -18 30 -30 81 -16
72 5 -3 10 -14 10 -24 0 -26 34 -53 62 -49 28 4 36 39 13 58 -8 7 -15 17 -15
22 0 14 38 -10 50 -32z m2964 5 c-20 -20 -23 -29 -14 -45 6 -11 16 -17 25 -14
8 4 15 1 15 -5 0 -12 -29 -15 -47 -3 -6 4 -14 19 -18 33 -7 30 15 59 45 59 17
0 16 -3 -6 -25z m-2958 -320 c9 -35 -12 -65 -44 -65 -25 1 -25 2 -9 14 24 18
22 53 -4 61 -34 11 -63 -25 -55 -67 9 -48 26 -68 67 -77 39 -9 78 2 96 26 7 9
16 14 19 10 3 -3 -6 -17 -21 -31 -23 -21 -38 -26 -79 -26 -54 1 -75 11 -94 47
-41 76 33 187 96 145 12 -8 25 -25 28 -37z m3604 7 c0 -10 -20 -34 -45 -52
-70 -52 -70 -92 1 -169 28 -32 32 -41 19 -41 -21 0 -85 65 -85 86 0 26 -48 16
-64 -13 -18 -36 -8 -61 38 -99 20 -16 52 -42 71 -58 19 -15 35 -34 35 -42 0
-20 -14 -17 -35 6 -11 12 -36 31 -58 43 -23 13 -44 35 -53 55 -16 40 -44 40
-58 0 -8 -24 -5 -34 20 -69 17 -24 54 -55 85 -72 67 -36 109 -75 109 -99 0
-24 -1 -23 -44 17 -21 19 -43 35 -50 35 -19 0 -104 78 -122 111 -14 27 -37 38
-48 21 -2 -4 -7 -23 -11 -43 -8 -43 -2 -50 126 -157 99 -83 132 -127 155 -211
23 -80 9 -118 -16 -44 -18 54 -19 57 -85 137 -44 53 -168 176 -191 189 -11 6
-20 -3 -35 -39 l-21 -47 106 -106 c58 -58 114 -117 124 -131 59 -77 102 -213
102 -322 0 -35 7 -87 15 -114 20 -67 20 -77 -4 -65 -28 15 -33 35 -40 171 -6
106 -11 134 -34 184 -50 109 -230 336 -267 336 -30 0 -40 -87 -12 -111 19 -18
116 -125 161 -179 16 -19 49 -72 72 -118 l43 -83 1 -122 c0 -67 -6 -171 -13
-231 -10 -85 -10 -125 -1 -181 14 -90 9 -112 -16 -65 -20 38 -21 82 -7 335 4
72 4 161 0 199 -11 103 -73 213 -196 346 -80 86 -92 86 -100 -4 l-4 -55 90
-86 c126 -120 142 -154 144 -311 0 -68 -7 -162 -16 -219 -9 -55 -20 -125 -24
-155 -8 -54 -9 -55 -22 -28 -14 29 -14 26 25 203 22 98 18 231 -9 309 -20 57
-75 143 -144 225 -35 42 -57 37 -66 -14 -7 -33 -2 -45 38 -105 117 -174 128
-237 76 -446 -40 -163 -42 -266 -5 -374 14 -40 22 -76 19 -81 -12 -19 -23 -7
-43 46 -17 44 -21 81 -22 183 -1 78 3 136 9 149 6 11 9 23 7 25 -3 3 2 22 11
44 24 55 25 223 2 284 -24 64 -51 114 -82 151 -32 38 -38 33 -56 -51 -12 -56
-11 -58 30 -156 63 -147 68 -199 37 -364 -59 -304 -58 -340 18 -493 46 -91 73
-199 46 -183 -6 4 -11 17 -11 29 0 24 -43 115 -89 188 -33 52 -43 102 -43 198
1 62 10 118 46 286 19 87 20 150 2 242 -21 110 -69 178 -81 116 -3 -15 -10
-50 -16 -76 -10 -44 -9 -50 10 -71 22 -23 47 -92 42 -111 -2 -5 -4 -17 -5 -24
-2 -8 -7 -16 -13 -18 -6 -2 -12 21 -15 56 -8 108 -46 116 -68 13 -11 -54 -10
-62 8 -98 11 -22 26 -69 32 -105 7 -35 16 -74 21 -87 12 -30 11 -156 -1 -252
-14 -113 -96 -255 -208 -363 -37 -36 -41 -38 -50 -20 -10 16 -17 12 -71 -46
-66 -71 -81 -73 -107 -18 l-16 34 -74 -5 c-84 -5 -125 7 -153 47 -31 43 -35
91 -11 129 11 17 23 32 28 32 4 0 21 -17 37 -39 42 -55 121 -111 157 -111 30
0 30 0 14 22 -93 126 -110 339 -34 403 l31 26 29 -29 c42 -42 49 -123 18 -207
-32 -85 -36 -132 -15 -172 18 -33 38 -42 50 -23 3 5 1 19 -5 31 -13 24 -5 69
12 69 7 0 25 -12 40 -27 45 -43 96 -39 148 12 56 55 105 137 126 215 26 95 25
333 -2 409 -10 30 -24 56 -31 58 -7 3 -19 -19 -29 -51 -16 -50 -16 -62 -3
-128 21 -110 18 -203 -10 -265 -22 -50 -46 -81 -56 -71 -2 2 8 33 22 68 22 54
26 82 27 162 1 121 -11 140 -55 88 -29 -35 -30 -35 -23 -130 5 -82 3 -101 -14
-140 -19 -44 -57 -88 -67 -78 -3 2 8 29 25 59 24 43 30 66 30 116 0 68 -11 84
-41 57 -38 -34 -22 18 25 81 107 143 168 325 276 830 18 85 63 290 81 365 18
82 84 249 133 340 72 134 151 225 255 292 53 33 61 34 61 10z m-4629 -24 c85
-62 125 -103 178 -187 110 -172 189 -390 252 -692 22 -107 51 -246 64 -309 33
-160 48 -215 93 -338 53 -144 98 -239 137 -287 45 -57 59 -85 42 -85 -7 0 -19
6 -25 12 -22 22 -33 -12 -29 -85 3 -47 11 -77 24 -95 35 -48 36 -52 13 -52
-16 0 -27 14 -47 56 -22 49 -24 63 -19 132 4 42 7 82 8 87 2 15 -50 95 -62 95
-17 0 -22 -47 -18 -153 2 -78 8 -110 21 -131 10 -15 17 -37 15 -49 -3 -19 -7
-17 -30 19 -49 77 -61 178 -33 284 19 71 19 104 -1 157 -19 49 -26 52 -41 21
-55 -114 -59 -338 -10 -476 37 -104 105 -204 158 -232 20 -11 96 17 118 44 31
38 62 -3 42 -56 -18 -48 11 -52 39 -5 22 35 25 73 11 109 -30 76 -43 142 -37
191 14 107 84 133 121 44 31 -75 14 -214 -39 -319 -37 -73 -33 -82 28 -58 34
13 116 89 127 117 11 29 33 29 53 1 22 -31 20 -86 -4 -125 -28 -47 -70 -65
-148 -63 -37 1 -72 1 -78 1 -6 -1 -17 -14 -24 -30 -19 -46 -40 -47 -77 -4 -18
21 -32 41 -33 44 0 4 -12 14 -26 24 -24 15 -26 15 -38 0 -11 -15 -19 -9 -72
52 -157 179 -185 244 -186 428 0 148 14 247 48 331 24 60 25 68 13 122 -16 73
-25 83 -50 53 -14 -17 -19 -39 -19 -82 0 -63 -14 -79 -25 -29 -9 41 3 89 31
126 24 31 24 32 9 105 -9 40 -18 75 -21 78 -11 11 -44 -41 -59 -92 -31 -101
-30 -198 0 -352 47 -234 38 -357 -36 -476 -22 -35 -47 -89 -56 -119 -10 -34
-18 -48 -21 -37 -7 36 9 87 61 189 l52 103 -1 110 c0 76 -8 142 -24 215 -41
180 -31 309 33 453 26 60 29 73 20 100 -6 18 -14 47 -18 65 -4 17 -10 32 -15
32 -15 0 -49 -50 -87 -129 -49 -98 -56 -190 -24 -302 33 -115 47 -274 32 -357
-13 -75 -53 -153 -58 -117 -2 11 8 53 22 94 29 86 34 210 11 266 -8 18 -12 36
-9 38 2 3 -3 19 -12 36 -23 45 -43 197 -33 245 14 64 45 126 125 247 22 33 23
41 13 78 -6 22 -14 43 -19 45 -12 8 -160 -180 -185 -234 -32 -71 -35 -230 -5
-351 12 -52 23 -114 23 -138 1 -53 -21 -68 -28 -19 -36 240 -38 265 -34 385 3
92 9 138 21 163 18 37 92 119 166 184 l44 38 -6 56 c-3 30 -11 60 -17 66 -17
16 -187 -165 -227 -240 -56 -108 -60 -151 -48 -470 6 -152 5 -185 -8 -216 -15
-34 -42 -55 -33 -25 26 85 28 141 11 303 -24 225 -14 297 57 422 38 65 135
186 184 226 33 28 44 44 44 65 0 32 -19 91 -29 91 -17 0 -85 -67 -132 -130
-28 -39 -56 -70 -60 -70 -5 0 -9 -5 -9 -11 0 -6 -16 -37 -36 -70 -49 -79 -71
-163 -73 -283 -2 -102 -11 -136 -36 -136 -19 0 -18 4 1 59 8 24 15 72 15 105
-1 78 3 109 22 174 31 102 75 168 194 287 98 97 114 118 108 137 -10 32 -34
68 -45 68 -15 0 -200 -181 -200 -196 0 -8 -4 -14 -9 -14 -9 0 -63 -104 -75
-142 -3 -10 -11 -18 -17 -18 -8 0 -10 15 -6 49 10 88 54 154 155 234 116 93
132 111 132 149 0 19 -6 43 -14 53 -12 16 -16 17 -30 6 -9 -7 -16 -19 -16 -26
0 -17 -70 -79 -112 -101 -18 -9 -45 -28 -60 -42 -15 -14 -31 -22 -35 -19 -9 9
27 57 53 71 10 6 21 14 24 17 3 4 15 9 26 13 28 9 114 100 114 121 0 24 -19
55 -34 55 -7 0 -24 -17 -37 -37 -13 -20 -39 -45 -58 -55 -18 -11 -40 -25 -48
-33 -16 -16 -33 -20 -33 -7 0 15 24 39 72 71 26 17 54 41 63 53 18 27 20 69 3
86 -18 18 -56 15 -62 -6 -8 -24 -74 -87 -82 -79 -4 4 9 24 29 46 21 23 39 56
43 77 7 36 5 39 -45 82 -28 24 -51 48 -51 53 0 19 36 8 81 -23z m4429 2 c0 -5
-2 -10 -4 -10 -3 0 -8 5 -11 10 -3 6 -1 10 4 10 6 0 11 -4 11 -10z m-40 -107
c0 -10 -9 -13 -27 -11 -31 4 -42 25 -16 30 26 6 43 -2 43 -19z m-4170 8 c0
-10 -24 -21 -46 -21 -8 0 -14 7 -14 15 0 10 10 15 30 15 17 0 30 -4 30 -9z
m367 -7 c2 -7 -5 -10 -20 -7 -15 3 -51 -11 -102 -37 -74 -40 -81 -42 -142 -37
-64 5 -91 17 -80 35 4 5 28 5 61 -1 47 -9 62 -7 98 9 24 10 45 21 48 25 23 28
129 38 137 13z m3530 -25 c80 -42 79 -42 173 -23 34 6 34 6 18 -12 -14 -14
-34 -18 -91 -18 -65 -1 -78 2 -118 29 -30 20 -62 31 -99 35 -51 6 -53 7 -30
18 42 18 66 14 147 -29z m-3563 -77 c-71 -58 -179 -83 -242 -56 -19 8 -33 17
-30 19 3 3 45 7 94 8 82 3 93 5 136 35 26 18 50 38 55 45 5 8 9 6 11 -8 3 -12
-6 -28 -24 -43z m3483 11 c45 -37 49 -38 142 -43 83 -4 93 -7 74 -17 -34 -20
-141 -16 -193 8 -51 23 -90 56 -90 76 0 22 19 15 67 -24z m-3309 -25 c-9 -25
-128 -117 -165 -127 -54 -15 -116 -14 -179 5 -62 18 -72 30 -16 19 118 -22
225 5 307 78 42 38 60 46 53 25z m3141 -22 c59 -61 120 -81 243 -81 119 0 121
-7 6 -25 -88 -13 -133 -5 -194 36 -45 30 -104 84 -104 96 0 16 17 7 49 -26z
m-3019 -101 c-34 -41 -86 -55 -185 -53 -129 4 -119 23 12 23 91 1 104 3 139
27 42 27 55 29 34 3z m3019 -25 c58 -3 106 -10 108 -15 5 -17 -190 -19 -218
-3 -60 33 -85 72 -26 41 22 -12 64 -19 136 -23z m321 -33 c0 -17 -49 -38 -165
-73 -115 -34 -173 -65 -209 -114 -17 -22 -33 -40 -38 -40 -16 0 15 57 54 97
49 50 113 79 215 99 42 8 87 20 102 28 34 18 41 19 41 3z m-3784 -7 c6 -6 44
-17 85 -25 117 -22 166 -43 220 -94 36 -34 51 -55 54 -81 l5 -35 -17 36 c-9
19 -38 49 -63 67 -47 32 -65 40 -222 87 -85 26 -133 55 -91 55 10 0 24 -5 29
-10z m694 -16 c90 -16 140 -41 140 -70 0 -19 -5 -18 -67 12 -89 44 -221 45
-405 3 -56 -13 -87 -7 -58 11 8 5 44 16 80 25 36 9 76 19 90 23 49 14 132 13
220 -4z m2586 5 c92 -16 154 -39 154 -56 0 -17 -6 -17 -160 12 -125 23 -229
16 -311 -21 -67 -30 -89 -24 -44 12 28 22 86 39 163 48 18 2 36 6 39 10 10 9
93 7 159 -5z m-3121 -120 c29 -1 30 -1 5 -9 -54 -17 -140 -10 -140 12 0 7 19
9 53 4 28 -3 66 -6 82 -7z m3565 2 c0 -16 -58 -33 -92 -26 -95 19 -91 30 12
33 44 1 80 -2 80 -7z m-3044 -61 c44 -22 113 -69 154 -105 90 -78 115 -91 209
-106 89 -15 81 -34 -13 -33 -78 1 -116 22 -235 128 -115 103 -170 128 -290
134 -113 5 -102 22 15 22 75 0 88 -3 160 -40z m2623 34 c57 -12 32 -19 -62
-19 -84 0 -98 -3 -157 -32 -38 -19 -102 -66 -155 -114 -107 -97 -146 -119
-219 -120 -90 -2 -108 25 -22 34 66 7 141 44 197 97 23 22 45 40 48 40 3 0 17
12 30 25 13 14 55 41 95 60 60 30 81 35 142 35 39 0 86 -3 103 -6z m-3019 -44
c0 -29 -134 -46 -197 -26 -38 12 -27 29 15 23 20 -2 62 -1 92 3 82 11 90 11
90 0z m3389 -15 c-57 -29 -167 -29 -206 1 -16 12 -5 13 78 8 60 -4 103 -3 115
4 10 6 23 8 28 5 5 -3 -2 -11 -15 -18z m-37 -75 c-48 -40 -195 -60 -297 -41
-105 20 -92 34 25 27 83 -5 122 -3 190 12 110 25 109 25 82 2z m-3461 0 c47
-10 217 -14 273 -7 36 4 28 -22 -11 -32 -91 -26 -275 -7 -328 33 -25 19 -10
20 66 6z m-1 -95 c36 -23 81 -47 100 -53 37 -11 108 -11 126 0 5 4 91 8 190
10 l180 3 40 -27 c35 -24 74 -73 74 -93 0 -4 -16 7 -36 25 -20 17 -47 36 -61
41 -14 5 -136 9 -271 9 -259 -1 -283 2 -354 46 -45 28 -89 75 -82 86 6 9 3 11
94 -47z m3490 44 c0 -21 -74 -82 -130 -108 l-55 -26 -251 3 c-238 4 -253 3
-292 -17 -22 -11 -48 -31 -56 -43 -20 -28 -33 -15 -16 16 12 24 100 94 100 80
0 -3 7 -1 15 6 12 10 58 10 234 0 120 -7 234 -10 252 -6 19 3 68 29 109 56 79
52 90 57 90 39z m-3451 -167 c64 -32 65 -32 226 -32 132 0 165 -3 175 -15 11
-13 -6 -15 -142 -15 -165 0 -240 13 -312 53 -21 12 -46 33 -55 46 l-15 24 29
-15 c17 -8 59 -29 94 -46z m3431 49 c0 -21 -79 -73 -139 -91 -52 -17 -92 -20
-227 -20 -152 0 -191 7 -146 25 9 4 93 9 186 11 l169 4 71 39 c76 43 86 46 86
32z m-3391 -175 c9 -7 91 -11 235 -11 226 0 266 -6 266 -40 0 -18 3 -17 -39
-5 -18 5 -123 10 -232 10 -110 1 -213 5 -229 10 -32 9 -116 75 -125 98 -4 12
88 -34 124 -62z m3361 60 c0 -17 -78 -82 -115 -96 -14 -5 -124 -12 -243 -15
-119 -3 -232 -8 -249 -11 -24 -4 -33 -1 -33 9 0 34 58 42 270 39 l205 -4 49
27 c27 14 61 35 74 46 29 22 42 24 42 5z m-2333 -18 c20 -22 38 -70 49 -131 6
-32 -14 -127 -26 -127 -4 0 -10 18 -13 40 -7 52 -22 70 -59 70 -26 0 -32 -7
-54 -55 -14 -30 -28 -55 -31 -55 -3 0 -3 31 -1 68 5 73 42 163 80 195 26 22
30 22 55 -5z m1234 1 c36 -36 73 -129 77 -196 2 -35 2 -63 -2 -63 -3 0 -13 17
-21 37 -21 50 -43 73 -71 73 -30 0 -54 -36 -54 -79 0 -33 -1 -34 -17 -18 -27
26 -23 152 7 209 33 63 48 70 81 37z m-1424 -21 c26 -48 24 -169 -4 -228 -19
-39 -21 -42 -22 -19 -1 33 -20 89 -31 89 -15 0 -61 -43 -75 -70 -8 -16 -20
-52 -26 -80 -6 -27 -15 -50 -20 -50 -12 0 -11 116 1 161 17 60 128 227 152
229 4 0 15 -15 25 -32z m1638 -35 c77 -94 98 -144 103 -245 3 -60 1 -88 -7
-88 -6 0 -13 12 -16 28 -18 83 -31 116 -55 142 -47 50 -79 35 -80 -37 0 -38
-18 -26 -31 20 -24 82 -7 237 25 237 8 0 35 -26 61 -57z m-901 -14 l47 -42 32
30 c48 46 74 56 121 49 74 -12 108 -71 70 -124 -19 -27 -55 -28 -79 -2 -17 18
-17 20 0 26 10 4 20 1 25 -6 12 -20 40 -3 40 24 0 37 -42 66 -83 57 -53 -12
-76 -29 -97 -71 -26 -51 -26 -102 0 -125 17 -15 22 -16 36 -4 10 8 14 23 12
41 -5 33 16 39 32 9 16 -31 12 -49 -15 -67 -20 -13 -31 -14 -56 -5 -24 8 -41
8 -64 0 -41 -15 -88 5 -93 39 -4 26 13 52 35 52 12 0 12 -3 -1 -22 -14 -20
-14 -24 1 -40 20 -22 27 -22 47 -2 18 18 22 104 6 135 -16 29 -86 61 -128 57
-42 -3 -68 -38 -51 -69 10 -20 39 -15 39 7 0 8 5 14 11 14 6 0 9 -14 7 -32 -2
-26 -8 -34 -26 -36 -31 -5 -62 24 -62 58 0 34 33 77 63 83 64 12 84 7 131 -34z
m-262 -63 c11 -22 20 -56 20 -76 -1 -37 -25 -110 -49 -145 -11 -17 -12 -12 -7
42 8 73 -10 113 -51 113 -26 0 -62 -38 -71 -77 -10 -39 -27 -27 -21 15 9 52
42 116 84 163 35 38 36 39 55 22 11 -10 29 -36 40 -57z m705 24 c39 -42 72
-103 79 -147 3 -24 3 -43 -2 -43 -10 0 -34 47 -34 65 0 17 -49 37 -72 29 -31
-9 -47 -58 -37 -112 5 -25 7 -48 4 -50 -3 -3 -17 21 -31 52 -35 76 -31 154 10
216 30 45 33 45 83 -10z m-2091 15 c27 -41 92 -73 184 -89 47 -8 97 -19 112
-25 27 -10 78 -69 78 -89 0 -19 -10 -14 -32 13 -28 36 -61 50 -158 70 -49 9
-101 27 -123 41 -41 27 -97 82 -97 95 0 18 20 8 36 -16z m3414 6 c0 -14 -77
-77 -116 -96 -19 -9 -62 -21 -95 -26 -82 -13 -134 -36 -163 -70 -28 -32 -36
-36 -36 -14 0 18 56 82 78 89 9 3 54 12 98 20 95 16 140 36 179 76 28 29 55
39 55 21z m20 -41 c0 -28 -53 -75 -119 -106 -31 -14 -75 -35 -98 -45 -42 -20
-92 -70 -128 -130 -26 -43 -45 -49 -45 -13 0 46 105 139 222 197 61 30 107 60
125 82 32 40 43 43 43 15z m-3439 -24 c22 -18 78 -53 126 -77 47 -24 105 -58
129 -77 43 -32 84 -95 84 -127 0 -30 -21 -14 -65 54 -45 68 -48 71 -159 124
-103 50 -166 99 -166 128 0 15 10 10 51 -25z m683 -43 c3 -10 6 -45 7 -78 3
-56 1 -60 -20 -61 -33 -2 -43 -16 -61 -89 -9 -36 -20 -67 -25 -68 -26 -6 -28
136 -4 201 34 91 89 141 103 95z m2114 -83 c28 -60 36 -178 15 -214 -9 -17
-12 -12 -22 33 -16 73 -36 107 -71 119 l-30 11 6 63 c4 35 11 69 17 76 15 19
54 -22 85 -88z m612 8 c-1 -29 -39 -95 -73 -125 -21 -19 -64 -41 -102 -52 -71
-22 -106 -38 -116 -54 -4 -6 -9 -5 -13 1 -9 15 48 54 128 87 84 35 117 62 141
114 17 40 35 54 35 29z m-3390 -37 c22 -45 53 -71 116 -100 24 -12 64 -30 89
-42 25 -12 50 -30 56 -41 9 -17 6 -16 -28 5 -21 14 -63 30 -93 36 -74 16 -127
52 -151 104 -18 40 -25 77 -14 77 2 0 14 -18 25 -39z m1512 12 c9 -10 19 -29
23 -43 4 -14 12 -31 18 -38 5 -7 7 -15 4 -18 -3 -3 -1 -19 5 -35 8 -23 5 -38
-16 -84 -13 -30 -29 -55 -33 -55 -5 0 -7 28 -5 63 3 54 1 65 -18 82 -20 18
-24 18 -48 4 -17 -9 -32 -31 -42 -59 l-15 -45 -3 47 c-4 55 23 119 70 167 35
36 40 37 60 14z m387 -18 c17 -19 37 -48 45 -63 24 -46 43 -174 22 -151 -2 2
-10 24 -18 49 -9 29 -24 50 -41 60 -25 14 -28 13 -49 -7 -17 -18 -21 -33 -20
-78 1 -30 -2 -55 -6 -55 -14 0 -42 70 -42 105 0 58 46 175 69 175 5 0 23 -16
40 -35z m-199 -71 c10 -27 -2 -64 -21 -64 -19 0 -32 46 -20 69 15 28 29 27 41
-5z m-1211 -38 c15 -37 26 -306 13 -306 -30 0 -75 237 -58 304 8 32 34 34 45
2z m2417 -12 c11 -58 -2 -164 -27 -229 l-23 -60 -8 50 c-8 54 -3 205 8 249 10
40 41 34 50 -10z m-1858 -16 c20 -20 14 -35 -41 -106 -48 -63 -63 -93 -83
-177 l-8 -30 -4 29 c-10 78 38 232 86 273 31 27 34 27 50 11z m1309 -20 c46
-50 80 -160 83 -265 0 -30 -20 -10 -26 25 -8 47 -25 80 -81 164 -46 68 -51 98
-15 98 10 0 28 -10 39 -22z m-1079 -19 c30 -55 -6 -165 -69 -210 -34 -24 -49
-18 -31 11 7 11 12 31 12 44 0 13 9 43 20 67 11 24 20 58 20 75 0 51 24 58 48
13z m-152 -54 c-25 -28 -53 -70 -63 -93 -29 -69 -50 -52 -30 25 21 79 94 156
124 131 10 -8 4 -21 -31 -63z m1000 18 c6 -28 19 -61 27 -74 10 -13 14 -32 11
-46 -4 -14 1 -34 11 -49 27 -42 10 -39 -41 8 -69 63 -91 130 -62 193 18 40 41
27 54 -32z m125 28 c39 -30 71 -104 67 -153 l-3 -43 -28 54 c-15 30 -44 72
-63 93 -18 21 -34 45 -34 53 0 21 33 19 61 -4z m-1371 -35 c-1 -6 -14 -29 -30
-51 -46 -63 -62 -96 -81 -165 l-17 -65 -1 80 c-1 92 17 141 68 192 30 31 61
35 61 9z m-677 -109 c39 -20 45 -27 33 -36 -10 -8 -16 -9 -21 -1 -3 6 -11 8
-16 5 -14 -9 -65 31 -104 82 -51 67 -43 83 13 24 26 -27 68 -61 95 -74z m2319
104 c13 -11 37 -43 53 -73 24 -43 29 -66 29 -120 1 -40 -3 -67 -9 -65 -5 1
-10 7 -11 12 -3 42 -42 132 -79 185 -24 35 -42 67 -39 71 8 14 30 10 56 -10z
m778 12 c0 -17 -78 -109 -109 -130 -35 -23 -81 -31 -81 -13 0 5 22 21 48 34
26 13 66 44 87 69 39 43 55 55 55 40z m-1673 -100 c22 -55 17 -153 -12 -209
-25 -48 -67 -94 -85 -94 -5 0 3 23 17 51 33 63 43 158 19 178 -23 19 -45 6
-52 -29 -7 -35 -24 -40 -24 -7 1 32 37 107 67 139 31 32 47 25 70 -29z m152
37 c10 -5 30 -31 43 -57 27 -53 44 -118 28 -108 -6 3 -10 12 -10 19 0 7 -9 21
-20 31 -19 17 -21 17 -41 -1 -18 -16 -20 -28 -17 -71 3 -29 16 -74 31 -102 32
-62 20 -66 -23 -8 -60 81 -75 200 -34 279 16 31 18 32 43 18z m-1369 -39 c5
-11 10 -81 10 -158 -1 -125 -2 -136 -16 -118 -8 11 -23 49 -34 86 -32 105 -24
209 15 209 8 0 19 -9 25 -19z m2581 2 c8 -9 13 -17 11 -17 -2 -1 -1 -13 3 -27
12 -48 -44 -229 -71 -229 -18 0 -12 253 6 275 16 20 34 19 51 -2z m-2261 -9
c0 -20 -32 -65 -76 -108 -35 -34 -54 -73 -54 -112 0 -13 -4 -24 -10 -24 -5 0
-8 31 -6 74 4 84 29 141 74 169 35 21 72 22 72 1z m1976 -16 c40 -38 54 -82
53 -173 l-1 -60 -13 47 c-7 27 -31 69 -57 100 -55 66 -79 104 -71 112 16 15
56 3 89 -26z m-1366 -8 c0 -49 -49 -128 -94 -152 -15 -8 -12 1 13 45 17 30 31
59 31 65 0 6 4 22 10 36 11 31 40 35 40 6z m721 -38 c10 -29 27 -64 38 -79 44
-55 12 -50 -46 7 -32 32 -51 86 -39 116 10 27 29 10 47 -44z m-1826 -72 c40
-13 46 -30 12 -30 -31 0 -98 45 -125 84 -35 51 -26 52 28 3 28 -25 66 -51 85
-57z m2999 55 c-22 -33 -98 -84 -124 -82 -32 2 -24 15 23 37 24 11 59 36 78
56 36 38 51 31 23 -11z m-3740 -41 c21 -56 -1 -117 -65 -177 l-34 -32 35 -3
c58 -6 60 -22 2 -22 -85 0 -113 -41 -103 -150 4 -41 29 -83 66 -113 l34 -27
11 40 c15 57 29 50 27 -13 -2 -52 0 -56 44 -99 38 -36 49 -56 59 -99 13 -60 2
-126 -25 -149 -12 -10 -6 -19 38 -60 51 -47 52 -49 52 -105 0 -51 -3 -59 -33
-86 -65 -59 -172 -24 -172 55 1 43 21 66 59 66 25 0 34 -6 41 -26 10 -26 6
-44 -11 -44 -5 0 -9 12 -9 26 0 21 -4 25 -22 22 -19 -2 -24 -10 -26 -46 -3
-39 -1 -43 28 -56 43 -18 75 -10 105 26 29 34 31 66 9 113 -21 46 -58 67 -113
68 -97 1 -151 -56 -151 -160 0 -34 5 -65 10 -68 6 -3 10 -12 10 -20 0 -22 96
-154 104 -144 1 2 10 22 18 44 21 55 42 59 23 5 -24 -68 -20 -84 38 -145 43
-47 58 -57 92 -60 22 -2 45 1 52 7 7 5 16 7 21 4 5 -3 22 8 38 25 23 24 29 40
32 93 4 59 3 64 -24 85 -22 17 -37 21 -62 17 -29 -4 -32 -3 -22 9 15 18 43 19
71 5 30 -17 35 -6 29 60 -3 34 -3 63 1 66 7 4 19 -45 19 -80 0 -40 12 -47 66
-37 27 5 55 6 63 1 10 -5 1 -10 -27 -15 -65 -11 -90 -36 -91 -92 0 -27 -2 -57
-3 -68 -2 -15 3 -20 20 -19 114 3 111 3 132 37 11 17 20 44 20 60 0 15 5 27
11 27 11 0 9 -55 -2 -99 -3 -10 10 -17 41 -24 44 -8 80 -31 68 -42 -3 -3 -17
-1 -32 5 -15 5 -41 10 -57 10 -30 0 -30 0 -24 -47 5 -36 2 -53 -10 -68 -15
-19 -16 -18 -10 23 10 65 -12 92 -73 91 -26 0 -63 -5 -82 -12 -40 -14 -83 -71
-74 -99 3 -10 6 -31 6 -47 1 -22 15 -43 54 -82 56 -56 58 -56 157 -33 47 11
30 -13 -18 -25 -25 -6 -45 -15 -45 -20 0 -18 101 -93 150 -112 87 -33 135 -25
197 34 37 35 48 71 39 132 -10 64 -43 95 -103 95 -60 0 -89 -19 -102 -67 -10
-36 -1 -69 23 -85 19 -13 63 -9 76 7 17 20 5 45 -20 45 -12 0 -18 5 -15 10 12
19 52 11 62 -12 23 -51 -22 -87 -91 -74 -26 5 -38 15 -51 42 -16 34 -16 39 0
81 38 100 162 114 222 25 12 -18 23 -38 25 -44 2 -6 21 0 46 16 74 47 147 29
230 -57 44 -45 49 -46 115 -31 30 7 39 -13 10 -22 -10 -3 -29 -10 -42 -15
l-24 -10 39 -40 c21 -22 51 -47 66 -55 36 -18 92 -18 133 2 43 20 89 86 89
129 0 68 -59 113 -108 81 -24 -15 -43 -67 -31 -86 11 -17 53 -11 68 11 21 29
33 4 13 -26 -26 -40 -77 -32 -101 16 -18 34 -8 67 31 98 41 32 81 27 121 -15
l34 -37 22 21 c34 32 108 62 155 62 51 0 97 -18 158 -61 l44 -33 30 35 c30 34
42 29 15 -7 -25 -33 -18 -73 21 -121 38 -47 98 -83 137 -83 87 0 132 167 62
227 -31 27 -81 30 -107 6 -20 -18 -24 -73 -8 -104 20 -36 68 -18 62 24 -5 27
17 20 24 -8 7 -30 -18 -65 -48 -65 -10 0 -30 11 -43 25 -37 36 -35 106 2 141
24 22 34 25 68 20 22 -4 52 -15 67 -26 l27 -20 37 25 c51 35 97 33 135 -4 55
-56 26 -161 -45 -161 -31 0 -58 36 -49 68 8 31 29 22 25 -10 -6 -49 50 -47 67
2 18 54 -12 110 -60 110 -27 0 -95 -47 -85 -58 3 -3 1 -10 -4 -17 -28 -33 14
-146 61 -166 57 -23 153 28 200 105 17 28 17 31 -2 67 -21 43 -23 49 -11 49 5
0 15 -11 22 -25 16 -30 29 -31 58 -5 31 29 91 57 139 65 55 9 133 -17 181 -59
22 -19 37 -26 39 -19 3 7 14 24 25 39 19 24 26 26 71 21 62 -6 90 -35 83 -85
-7 -44 -22 -62 -55 -62 -32 0 -51 17 -50 45 0 19 1 19 16 -2 19 -28 49 -30 63
-4 15 29 12 49 -10 71 -41 41 -111 14 -125 -50 -8 -36 25 -102 66 -133 41 -30
107 -33 157 -8 35 18 92 76 92 94 0 3 -16 9 -35 13 -57 10 -55 27 3 19 50 -7
51 -6 88 35 41 46 122 90 164 90 15 0 49 -11 75 -25 48 -24 64 -21 65 11 0 23
59 66 97 71 107 14 191 -109 124 -181 -19 -20 -34 -26 -67 -26 -38 0 -45 4
-58 29 -13 25 -13 31 0 50 17 24 54 29 54 6 0 -9 -6 -12 -15 -9 -19 8 -32 -23
-16 -39 6 -6 25 -12 42 -13 65 -3 78 90 19 139 -24 21 -35 23 -67 17 -56 -11
-67 -18 -85 -48 -39 -69 -28 -129 37 -192 40 -39 108 -50 171 -30 39 13 127
73 153 103 11 15 10 18 -14 27 -14 5 -32 10 -40 10 -15 0 -30 18 -22 26 3 3
33 0 67 -7 l62 -12 51 51 c48 48 51 54 55 111 4 56 2 62 -25 90 -35 35 -129
59 -162 41 -25 -13 -36 -49 -27 -90 4 -22 2 -30 -8 -30 -18 0 -30 51 -21 91
l7 32 -63 -7 c-56 -5 -62 -5 -46 8 9 7 35 16 57 20 l40 6 -7 61 c-5 51 -4 61
8 57 8 -2 15 -18 17 -34 7 -69 17 -80 93 -90 39 -5 72 -7 73 -4 2 3 0 35 -3
72 -7 79 -23 99 -81 107 -22 3 -40 11 -40 16 1 12 53 12 92 1 26 -8 27 -7 34
43 3 28 13 59 21 68 13 16 13 15 9 -12 -19 -118 -19 -118 0 -110 36 15 74 17
89 5 23 -19 18 -26 -18 -22 -22 2 -41 -3 -60 -18 -23 -18 -27 -29 -27 -70 0
-27 5 -60 11 -73 16 -35 66 -61 121 -61 44 -1 51 2 103 54 60 59 64 76 41 143
-20 55 1 57 25 2 l21 -47 28 27 c16 15 42 53 59 85 25 47 31 70 31 119 0 100
-33 145 -120 161 -45 9 -59 7 -89 -8 -72 -38 -91 -137 -34 -182 52 -40 123
-15 123 44 0 39 -17 61 -37 45 -7 -7 -13 -20 -13 -30 0 -11 -4 -19 -10 -19
-14 0 -13 43 2 58 17 17 63 15 79 -4 22 -26 15 -95 -11 -116 -27 -22 -90 -24
-130 -3 -33 17 -60 62 -60 97 1 41 37 106 69 123 32 16 39 33 20 52 -7 7 -15
35 -20 63 -11 68 9 122 68 182 45 46 46 47 40 98 -5 38 -3 50 6 47 7 -2 13
-17 15 -33 5 -46 17 -48 56 -9 47 46 59 77 56 139 -3 92 -21 110 -108 109 -23
0 -45 3 -47 7 -7 12 35 40 58 40 16 0 12 9 -22 45 -45 48 -51 73 -36 143 10
42 22 22 17 -30 -3 -49 -1 -56 33 -95 38 -45 55 -53 55 -28 0 29 34 85 52 85
22 0 22 0 3 -36 -21 -40 -19 -103 5 -149 24 -47 27 -143 6 -183 -8 -15 -28
-40 -45 -56 -39 -37 -39 -47 0 -69 45 -25 29 -32 -28 -13 l-47 16 -55 -54
c-52 -52 -55 -58 -59 -115 -4 -59 -3 -62 32 -97 34 -34 40 -36 82 -31 96 10
138 101 74 162 -26 25 -34 27 -57 19 -30 -10 -55 -48 -46 -70 3 -8 18 -14 34
-14 29 0 38 -13 18 -25 -17 -11 -58 4 -70 26 -24 46 20 109 78 109 106 0 134
-126 45 -200 l-36 -30 28 -28 c36 -39 59 -114 51 -172 -8 -53 -30 -97 -84
-169 -23 -30 -41 -58 -41 -63 0 -4 13 -8 29 -8 65 0 111 -75 91 -149 -17 -63
-59 -78 -107 -37 -24 21 -26 27 -18 52 15 41 36 44 28 3 -5 -25 -2 -35 12 -46
24 -17 30 -16 49 3 10 10 16 33 16 64 0 42 -4 52 -25 66 -13 9 -45 16 -70 16
-39 1 -51 -4 -80 -32 -48 -47 -57 -85 -39 -171 8 -39 20 -77 27 -85 53 -64
106 -87 152 -66 58 27 71 105 19 118 -36 9 -51 -9 -34 -41 16 -29 7 -43 -15
-25 -26 22 -14 81 20 94 20 7 70 -18 79 -39 18 -49 -9 -109 -61 -130 -20 -8
-43 -14 -52 -13 -12 2 -17 -8 -21 -42 -3 -25 -16 -60 -28 -78 -19 -26 -30 -32
-61 -32 -46 0 -91 32 -91 64 0 26 26 66 43 66 20 0 58 -31 51 -42 -4 -6 -10
-6 -17 1 -6 6 -19 11 -29 11 -27 0 -25 -56 3 -70 44 -24 92 10 105 75 5 27 -1
38 -41 83 -60 67 -90 82 -162 82 -57 0 -60 -1 -107 -49 -47 -47 -49 -51 -43
-93 10 -74 90 -124 132 -82 9 9 15 28 13 43 -2 20 -9 27 -30 29 -16 2 -28 -1
-28 -7 0 -6 -7 -11 -15 -11 -21 0 -19 9 8 31 31 25 52 24 76 -7 27 -35 26 -55
-4 -88 -51 -55 -153 -19 -170 60 -4 16 -8 35 -11 42 -2 8 -25 -4 -63 -33 -79
-60 -140 -85 -207 -85 -62 0 -85 9 -130 52 l-32 30 -42 -46 c-34 -37 -49 -46
-76 -46 -49 0 -84 20 -99 57 -13 30 -12 38 2 67 15 31 48 56 75 56 38 0 65
-71 32 -84 -13 -5 -15 -1 -10 18 5 19 1 28 -14 36 -30 16 -73 -29 -64 -67 15
-69 84 -83 132 -28 57 64 49 145 -18 180 -59 31 -129 13 -190 -50 -28 -29 -32
-38 -27 -72 2 -21 8 -49 12 -62 6 -18 5 -23 -5 -19 -14 4 -25 20 -34 52 -5 16
-11 13 -46 -22 -95 -99 -196 -106 -280 -22 l-39 39 -20 -35 c-37 -62 -99 -68
-152 -14 -35 34 -38 81 -9 110 25 25 51 25 81 1 31 -25 18 -38 -15 -16 -33 22
-56 6 -56 -38 0 -43 25 -67 71 -67 40 0 65 23 73 66 3 11 7 27 11 36 5 11 -6
31 -35 62 -42 46 -107 76 -162 76 -41 0 -108 -33 -143 -70 -25 -26 -27 -33
-15 -40 8 -5 22 -10 31 -10 9 0 22 -7 29 -15 14 -17 7 -19 -38 -6 -43 13 -57
7 -81 -34 -25 -42 -94 -83 -155 -91 -45 -7 -49 -5 -87 32 l-39 38 -31 -37
c-26 -32 -36 -37 -72 -37 -57 0 -116 32 -165 89 l-43 50 -46 -14 c-26 -8 -49
-12 -51 -10 -10 9 21 34 49 40 16 4 29 10 29 15 0 14 -72 72 -109 87 -75 32
-187 -6 -231 -79 -17 -28 -17 -35 -4 -77 7 -25 21 -52 31 -58 45 -34 113 4
113 64 0 30 -3 33 -29 33 -17 0 -33 -5 -36 -10 -9 -14 -25 -12 -25 3 0 14 40
37 63 37 24 0 39 -18 47 -55 8 -35 6 -41 -25 -72 -45 -45 -102 -47 -138 -3
-14 16 -27 35 -29 42 -3 8 -15 1 -33 -20 -38 -45 -75 -62 -135 -62 -62 0 -113
24 -160 76 l-34 38 -15 -37 c-7 -20 -18 -37 -22 -37 -12 0 -11 12 2 65 13 52
-2 81 -65 126 -31 23 -50 29 -92 29 -54 0 -69 -8 -101 -56 -20 -31 -11 -85 23
-136 20 -32 30 -38 60 -38 75 0 109 80 52 123 -22 17 -30 18 -42 7 -10 -8 -14
-21 -10 -36 8 -32 -9 -31 -27 2 -13 24 -12 28 14 50 26 22 30 23 57 9 65 -34
79 -98 31 -146 -24 -23 -38 -29 -75 -29 -41 0 -48 4 -82 45 l-36 45 -38 -34
c-36 -32 -79 -46 -145 -48 -52 0 -124 33 -192 91 -27 22 -52 41 -55 41 -4 0
-9 -18 -13 -40 -4 -22 -15 -51 -26 -64 -56 -71 -175 -38 -167 46 4 45 45 69
82 48 14 -7 26 -19 26 -27 0 -10 -6 -10 -26 3 -24 16 -26 16 -45 -3 -17 -17
-18 -23 -8 -46 13 -30 43 -40 84 -28 37 9 55 42 55 102 0 42 -4 50 -45 88 -41
38 -49 41 -99 41 -68 0 -102 -12 -144 -53 -51 -49 -65 -81 -53 -123 11 -40 37
-74 57 -74 7 0 25 5 39 12 20 9 25 18 23 37 -3 23 -7 26 -35 23 -18 -1 -33 1
-33 4 0 10 33 33 47 34 21 0 43 -31 43 -61 0 -41 -32 -69 -78 -69 -51 0 -73
25 -87 98 -12 57 -12 57 -53 63 -49 6 -77 29 -93 76 -13 40 6 78 48 94 52 19
99 -47 58 -81 -20 -17 -29 -7 -16 18 7 13 7 22 -1 30 -18 18 -46 14 -58 -7
-16 -32 -12 -51 20 -83 27 -27 36 -30 72 -25 44 6 89 42 115 91 8 15 17 61 20
101 l6 73 -39 46 c-38 44 -41 45 -96 46 -48 0 -59 -4 -72 -22 -28 -39 -18
-123 15 -131 27 -7 64 40 47 61 -10 12 -9 14 7 11 13 -3 21 -14 23 -30 7 -57
-82 -85 -121 -38 -15 18 -18 34 -14 72 5 58 34 93 89 107 21 6 38 13 38 15 0
2 -22 33 -49 69 -55 72 -71 116 -71 191 0 55 30 132 55 141 23 9 18 27 -19 63
-78 75 -45 191 54 191 60 0 107 -85 66 -119 -17 -15 -68 -11 -73 5 -2 7 8 9
27 6 26 -4 30 -1 30 20 0 34 -27 68 -55 68 -14 0 -34 -12 -49 -31 -42 -49 -32
-105 24 -134 37 -19 93 -19 130 0 75 39 55 175 -35 243 -36 28 -50 33 -75 27
-16 -4 -32 -11 -35 -16 -8 -12 -25 -12 -25 0 0 5 14 14 30 21 37 15 38 26 4
53 -62 48 -86 195 -44 265 23 38 25 96 5 132 -20 36 -18 46 5 25 11 -10 22
-33 26 -51 3 -19 11 -34 17 -34 6 0 28 17 49 37 35 34 38 41 38 95 0 56 11 75
24 42z m1873 -69 c-7 -40 -46 -96 -90 -127 l-31 -22 30 44 c17 25 38 66 48 93
22 58 52 67 43 12z m657 -13 c9 -26 28 -64 41 -85 14 -20 23 -37 20 -37 -37 0
-105 88 -105 137 0 50 25 42 44 -15z m-930 -14 c-2 -51 -19 -70 -58 -63 -27 5
-37 0 -75 -39 -24 -25 -48 -43 -53 -40 -15 10 -8 47 17 90 37 63 87 94 145 91
22 -2 25 -6 24 -39z m1273 3 c39 -28 83 -99 83 -134 0 -26 -10 -21 -57 25 -35
35 -49 42 -77 40 -18 -1 -38 3 -43 10 -14 18 -23 57 -16 74 9 24 67 16 110
-15z m-1509 -114 c-4 -55 -12 -96 -26 -123 -20 -40 -52 -75 -52 -58 0 5 -5 36
-10 69 -18 105 13 195 66 195 l27 0 -5 -83z m1696 53 c14 -17 28 -47 32 -66 6
-35 -9 -160 -21 -173 -8 -7 -39 32 -60 77 -23 47 -32 171 -14 183 23 15 36 10
63 -21z m-1406 -51 c5 -39 -39 -125 -78 -154 -57 -42 -66 -27 -26 46 13 24 27
55 31 69 21 67 67 92 73 39z m1095 13 c21 -22 91 -191 83 -199 -7 -8 -73 42
-91 70 -20 31 -40 111 -32 130 8 22 20 21 40 -1z m-863 -46 c0 -27 -9 -41 -44
-74 -24 -22 -53 -45 -65 -52 -26 -14 -44 -3 -19 11 10 5 30 31 44 57 47 83 54
92 69 92 10 0 15 -11 15 -34z m651 -35 c20 -34 45 -71 55 -83 19 -21 19 -21
-6 -8 -70 35 -138 128 -113 154 13 13 29 -1 64 -63z m-403 29 c3 -29 -65 -150
-84 -150 -7 0 -21 -10 -31 -22 -21 -26 -70 -56 -163 -99 -69 -32 -210 -82
-215 -77 -2 2 41 28 97 58 101 55 170 117 223 200 27 41 57 70 105 99 43 26
64 23 68 -9z m145 16 c42 -18 83 -58 150 -149 59 -79 96 -109 214 -172 40 -22
71 -40 69 -42 -4 -5 -116 33 -171 57 -22 10 -62 27 -90 39 -109 48 -206 147
-221 227 -5 30 0 54 12 54 3 0 19 -6 37 -14z m-1089 -38 c39 -60 28 -171 -25
-257 -20 -32 -22 -33 -32 -16 -6 11 -11 69 -11 130 -1 90 2 116 17 138 21 33
32 34 51 5z m2034 -12 c20 -44 24 -115 12 -201 -14 -98 -22 -99 -61 -12 -18
41 -23 69 -23 129 1 80 12 108 44 108 9 0 22 -11 28 -24z m-1580 -134 c8 -52
-60 -92 -167 -99 l-76 -4 29 23 c45 36 179 108 196 105 8 -1 16 -13 18 -25z
m1156 2 c74 -39 147 -95 140 -106 -8 -13 -115 -3 -147 13 -43 22 -77 62 -77
91 0 36 19 36 84 2z m-2383 -115 c-3 -76 -20 -127 -49 -150 -14 -11 -27 -18
-29 -15 -2 2 11 26 28 55 29 45 31 56 26 105 -5 55 -2 69 17 63 6 -2 9 -27 7
-58z m3554 -15 c0 -59 4 -75 28 -109 18 -26 23 -41 15 -44 -37 -12 -100 147
-79 202 19 49 35 27 36 -49z m-1965 2 c0 -43 -140 -113 -275 -137 -38 -7 -74
-16 -80 -19 -5 -4 -34 -8 -62 -9 -86 -4 -68 20 35 46 51 13 130 45 192 76 74
39 117 55 148 56 30 1 42 -3 42 -13z m485 -22 c71 -43 174 -84 276 -110 l74
-19 -71 -3 c-80 -3 -229 26 -298 59 -59 27 -122 82 -112 97 14 23 70 12 131
-24z m-1016 -11 l21 -18 -20 -34 c-12 -18 -24 -31 -27 -27 -3 3 -12 1 -19 -4
-6 -6 -16 -10 -20 -9 -5 1 -17 -1 -27 -6 -25 -11 -134 0 -152 15 -30 25 -17
40 35 40 38 0 60 7 97 30 54 34 82 37 112 13z m1517 -15 c35 -22 66 -33 109
-37 l60 -6 -28 -19 c-54 -36 -194 -30 -239 11 -35 31 -15 82 33 83 8 0 37 -14
65 -32z m887 -192 c8 -12 35 -44 61 -71 46 -50 74 -100 62 -112 -4 -4 -14 4
-24 18 -9 13 -40 50 -70 82 -60 66 -72 91 -72 152 0 76 14 86 22 17 4 -35 13
-74 21 -86z m-3353 72 c0 -66 -14 -89 -126 -211 -45 -49 -51 -53 -43 -27 6 16
35 57 64 90 54 59 81 120 76 167 -1 13 1 28 5 34 11 18 24 -11 24 -53z m1598
40 c7 -7 12 -18 12 -25 0 -21 -25 -15 -50 12 l-23 25 24 0 c14 0 30 -5 37 -12z
m142 -12 c-19 -13 -37 -20 -38 -15 -7 17 20 39 46 39 26 0 26 0 -8 -24z
m-1042 -15 c74 -37 143 -44 357 -35 287 12 383 10 426 -9 41 -18 115 -84 106
-93 -3 -4 -38 12 -78 35 -40 23 -78 40 -85 37 -7 -3 -15 -2 -18 2 -2 4 -51 3
-108 -2 -163 -14 -516 -13 -560 2 -38 14 -88 54 -88 72 0 14 5 13 48 -9z
m1952 1 c0 -15 -34 -40 -75 -58 -54 -23 -270 -27 -480 -8 -88 8 -174 12 -191
9 -17 -3 -66 -24 -108 -46 -42 -22 -76 -36 -76 -31 0 13 62 68 99 87 42 21 96
23 321 10 261 -15 369 -10 438 19 66 27 72 29 72 18z m-1926 -102 c28 -6 158
-13 290 -16 251 -5 380 -17 403 -35 7 -6 13 -8 13 -4 0 4 7 2 15 -5 8 -7 15
-9 15 -6 0 4 27 -12 61 -35 65 -44 82 -72 93 -149 l6 -45 -13 40 c-20 60 -62
120 -99 143 -74 45 -239 69 -538 77 -113 3 -225 10 -250 15 -48 12 -120 54
-120 70 0 6 17 -1 38 -14 20 -14 59 -30 86 -36z m1959 30 c-51 -47 -113 -57
-393 -70 -233 -10 -397 -28 -455 -50 -61 -23 -145 -138 -145 -197 0 -9 -3 -14
-6 -10 -12 12 18 118 42 147 36 42 130 96 192 109 30 6 178 16 330 21 153 6
301 15 329 20 54 9 107 32 118 50 3 5 9 10 13 10 4 0 -8 -14 -25 -30z m78 1
c-18 -32 -124 -123 -166 -142 -25 -11 -99 -24 -190 -33 -83 -8 -175 -20 -205
-26 -78 -15 -186 -69 -247 -124 -73 -66 -100 -127 -107 -244 -3 -52 -9 -98
-12 -104 -23 -36 -33 116 -13 202 22 101 83 188 165 236 68 40 211 83 314 94
282 31 330 44 418 120 54 46 56 47 43 21z m-2170 -26 c77 -69 165 -97 349
-110 52 -4 125 -13 162 -21 70 -14 201 -62 206 -76 2 -4 10 -8 17 -8 22 0 83
-59 109 -104 37 -65 58 -160 54 -250 -2 -52 -7 -81 -15 -84 -10 -3 -13 20 -13
94 0 86 -3 104 -27 153 -52 104 -177 199 -304 230 -26 6 -123 19 -215 30 -93
11 -182 25 -199 31 -42 16 -129 83 -155 120 -28 40 -16 38 31 -5z m-471 -11
c0 -45 -20 -124 -31 -124 -5 0 -9 -6 -9 -14 0 -19 -47 -56 -71 -56 -30 0 -22
25 17 55 49 38 74 82 74 133 0 23 5 42 10 42 6 0 10 -16 10 -36z m3090 -11 c0
-49 24 -95 71 -132 43 -35 49 -51 20 -51 -25 0 -78 53 -96 97 -17 40 -21 138
-5 128 6 -3 10 -22 10 -42z m-2769 -14 c7 -48 56 -115 144 -201 41 -40 75 -80
75 -88 0 -9 5 -21 11 -27 22 -22 6 -127 -26 -175 -16 -23 -31 -58 -34 -76 -8
-44 -26 -37 -25 10 0 23 10 49 26 70 35 46 58 93 58 118 0 49 -62 130 -132
173 -14 9 -46 46 -69 83 -42 65 -70 76 -31 11 71 -114 86 -145 89 -192 3 -38
-1 -58 -16 -82 -20 -31 -41 -44 -41 -24 0 5 9 29 20 54 25 56 16 109 -26 163
-68 85 -86 141 -64 195 16 38 33 32 41 -12z m2463 25 c3 -9 6 -37 6 -62 0 -48
-18 -84 -76 -155 -36 -44 -46 -92 -28 -141 25 -68 27 -76 15 -76 -19 0 -51 63
-51 100 0 33 9 52 84 182 15 26 26 56 24 65 -2 12 -14 0 -36 -39 -19 -35 -53
-74 -84 -99 -61 -47 -116 -112 -124 -146 -9 -34 1 -64 46 -130 25 -38 40 -72
40 -91 0 -47 -18 -48 -30 -1 -6 23 -23 59 -37 80 -33 50 -41 117 -19 172 16
40 77 117 94 117 28 0 142 170 142 211 0 31 23 40 34 13z m-2356 -77 c41 -72
66 -92 162 -133 77 -32 166 -88 232 -145 15 -13 36 -45 48 -71 29 -67 20 -103
-46 -180 -30 -34 -57 -73 -60 -85 -8 -30 -24 -30 -24 0 0 12 25 58 55 101 71
103 77 131 36 190 -17 24 -51 61 -74 80 -46 38 -135 82 -145 72 -3 -4 10 -23
30 -44 90 -96 117 -166 81 -211 l-19 -24 4 59 c3 53 1 63 -27 102 -17 23 -64
68 -103 100 -134 106 -198 181 -198 230 0 32 13 21 48 -41z m2262 39 c0 -37
-93 -150 -173 -209 -86 -64 -154 -136 -163 -172 -4 -14 -4 -44 -1 -66 5 -39
-5 -53 -17 -23 -23 59 4 135 72 204 27 28 43 50 36 50 -35 0 -114 -49 -171
-106 -54 -54 -63 -67 -63 -98 0 -42 26 -97 75 -162 34 -44 46 -84 25 -84 -5 0
-10 7 -10 15 0 9 -19 37 -43 63 -24 26 -51 58 -60 72 -24 35 -22 105 4 147 36
57 134 130 253 187 117 56 152 86 197 165 26 46 39 52 39 17z m-2595 -82 c-8
-13 -22 -24 -30 -24 -21 0 -19 8 10 42 14 16 26 39 27 51 0 12 3 7 5 -11 3
-20 -2 -43 -12 -58z m118 62 c21 -31 31 -146 16 -183 -7 -15 -13 -34 -15 -42
-1 -7 -7 -18 -13 -24 -15 -15 -14 17 1 60 8 23 9 36 2 43 -19 19 -42 -1 -79
-71 -36 -70 -37 -71 -26 -133 6 -34 11 -78 11 -97 0 -44 -18 -109 -30 -109 -6
0 -5 12 1 28 7 17 9 67 4 139 l-6 113 45 81 c52 92 70 148 61 190 -8 35 7 38
28 5z m2668 -29 c-3 -48 1 -56 84 -200 27 -47 27 -50 16 -123 -15 -103 -14
-160 5 -196 9 -16 11 -27 4 -23 -32 20 -45 113 -29 207 13 74 2 117 -48 191
-42 61 -81 40 -49 -27 17 -36 21 -66 8 -66 -18 0 -45 116 -44 187 1 39 31 105
45 100 7 -2 10 -23 8 -50z m120 -23 c24 -26 22 -38 -5 -28 -21 8 -36 45 -35
82 l1 27 8 -29 c5 -16 19 -39 31 -52z m-2337 -79 c61 -29 96 -40 181 -57 183
-36 228 -60 270 -142 35 -70 34 -138 -5 -221 -16 -35 -30 -69 -30 -75 0 -15
-17 -12 -23 4 -7 18 4 60 27 104 32 62 14 175 -37 230 -34 37 -63 48 -223 87
-173 41 -212 57 -251 97 l-28 29 30 -14 c17 -7 56 -26 89 -42z m1854 43 c-11
-32 -100 -77 -195 -98 -196 -43 -255 -62 -289 -92 -69 -61 -93 -162 -55 -236
28 -56 32 -86 16 -108 -11 -15 -14 -16 -15 -4 0 9 -13 42 -30 73 -43 83 -42
153 3 227 41 69 106 105 227 125 88 14 163 37 187 56 7 6 13 9 13 6 0 -3 26 9
58 28 60 35 86 43 80 23z m-1569 -213 c17 -19 38 -50 48 -68 19 -37 21 -120 3
-142 -21 -26 -31 -16 -15 15 25 48 19 83 -25 138 -21 28 -44 53 -50 57 -12 8
-13 35 -1 35 5 0 23 -16 40 -35z m1221 27 c0 -5 -14 -21 -30 -37 -17 -16 -42
-50 -57 -74 -27 -46 -27 -64 2 -136 6 -14 2 -13 -13 7 -24 28 -29 88 -12 132
5 14 28 46 51 71 39 43 59 55 59 37z m694 -86 c-13 -63 -13 -70 2 -87 14 -16
14 -19 3 -19 -41 0 -49 50 -22 137 23 73 34 53 17 -31z m-2634 -6 c15 -46 5
-93 -20 -98 -12 -2 -15 13 -15 83 -1 93 8 96 35 15z m-990 -598 c0 -16 -32
-52 -46 -52 -20 0 -18 37 4 49 21 12 42 14 42 3z m4628 -8 c23 -16 29 -39 12
-49 -12 -7 -50 30 -50 50 0 19 10 19 38 -1z"></path>
<path d="M1394 8487 c3 -12 6 -46 6 -76 l0 -53 32 4 c18 3 45 2 60 -3 16 -4
28 -5 28 -1 1 4 2 38 3 77 l2 70 -69 2 c-66 2 -68 2 -62 -20z"></path>
<path d="M5465 8502 c-3 -3 -5 -35 -5 -72 l0 -66 59 1 59 0 7 62 c4 34 4 67 0
72 -6 10 -111 12 -120 3z"></path>
<path d="M3295 6015 c-358 -56 -683 -322 -806 -659 -110 -301 -87 -630 62
-892 48 -84 156 -213 240 -287 293 -257 760 -320 1126 -152 162 75 349 236
438 379 175 281 215 651 104 954 -35 96 -85 178 -187 305 -56 69 -177 177
-198 177 -7 0 -14 4 -16 9 -6 17 -175 101 -263 130 -153 51 -329 63 -500 36z
m289 -66 c225 -24 428 -119 577 -269 199 -201 289 -414 289 -685 0 -214 -54
-394 -169 -560 -73 -106 -226 -245 -331 -301 -155 -81 -294 -115 -480 -114
-234 0 -426 67 -608 213 -173 140 -291 332 -338 551 -35 162 -14 407 48 566
62 158 222 352 366 445 208 133 404 180 646 154z"></path>
<path d="M3375 5934 c-11 -3 -55 -12 -99 -20 -43 -8 -111 -28 -152 -44 -139
-56 -322 -193 -390 -292 -16 -24 -32 -44 -36 -46 -5 -2 -8 -10 -8 -17 0 -7 -4
-15 -8 -17 -13 -5 -67 -107 -96 -180 -102 -260 -69 -604 80 -829 244 -367 655
-529 1063 -419 85 23 280 115 288 136 3 8 9 14 15 14 23 0 160 138 224 227
179 250 223 589 113 875 -63 164 -228 365 -379 463 -152 99 -290 142 -480 149
-63 3 -124 3 -135 0z m133 -87 c29 -19 1 -78 -35 -73 -27 4 -39 31 -25 60 11
25 32 30 60 13z m-331 -68 c15 -40 -1 -72 -32 -63 -25 8 -31 14 -39 39 -4 15
1 25 22 37 36 23 36 23 49 -13z m667 -14 c9 -35 -8 -65 -34 -58 -34 9 -45 30
-30 58 18 34 56 34 64 0z m-164 -92 c222 -75 384 -214 466 -399 31 -69 66
-225 64 -284 -2 -98 -36 -232 -79 -318 -89 -176 -266 -320 -454 -368 -34 -9
-69 -19 -77 -23 -27 -12 -305 -5 -305 8 0 2 -8 4 -17 6 -37 7 -176 73 -230
108 -115 77 -233 231 -279 365 -31 88 -42 203 -29 297 24 179 78 286 214 420
74 73 107 98 176 132 77 37 138 61 180 70 137 28 260 24 370 -14z m-780 -78
c7 -8 10 -25 6 -40 -9 -35 -58 -35 -74 0 -7 15 -8 25 -2 25 6 0 10 7 10 15 0
20 44 20 60 0z m1219 -16 c8 -24 8 -34 -4 -45 -21 -21 -65 -2 -65 29 0 52 52
64 69 16z m-1400 -260 c13 -38 1 -59 -34 -59 -24 0 -56 51 -36 58 6 2 11 10
11 18 0 8 10 14 24 14 18 0 27 -8 35 -31z m1586 0 c10 -44 -2 -71 -28 -63 -41
12 -51 29 -36 62 18 40 55 41 64 1z m-1658 -353 c-8 -20 -41 -21 -57 -1 -11
13 -11 20 0 40 19 35 43 36 54 3 5 -15 6 -34 3 -42z m1700 56 c6 -4 16 -19 21
-33 20 -51 -30 -70 -67 -26 -10 13 -10 20 6 41 20 28 23 29 40 18z m-1637
-327 c10 -12 10 -21 2 -40 -16 -34 -55 -34 -70 0 -7 15 -8 25 -2 25 6 0 10 7
10 15 0 20 44 20 60 0z m1589 -22 c10 -36 0 -56 -29 -58 -44 -3 -51 80 -7 87
28 5 26 6 36 -29z m-1411 -257 c16 -38 9 -56 -22 -56 -28 0 -59 41 -37 48 6 2
11 12 11 22 0 28 33 19 48 -14z m1225 -19 c11 -34 -5 -57 -34 -50 -24 7 -48
45 -30 51 6 2 11 9 11 16 0 26 43 12 53 -17z m-273 -198 c0 -37 -10 -47 -38
-40 -37 10 -42 53 -10 75 21 15 24 15 35 -1 7 -9 13 -25 13 -34z m-666 16 c9
-35 -8 -65 -34 -58 -35 9 -43 29 -25 57 22 33 51 34 59 1z m322 -68 c10 -33
-4 -66 -26 -60 -33 9 -45 30 -30 58 15 28 47 29 56 2z"></path>
<path d="M3360 5671 c-156 -23 -273 -84 -396 -205 -76 -75 -98 -106 -132 -176
-92 -192 -93 -424 -3 -605 111 -222 300 -350 565 -385 80 -10 225 3 301 27
195 61 382 235 440 407 68 204 59 393 -27 566 -33 67 -60 103 -127 170 -48 47
-106 95 -131 106 -106 51 -138 64 -195 79 -72 19 -219 27 -295 16z m164 -157
c24 -38 27 -49 18 -63 -7 -9 -21 -28 -31 -44 l-18 -27 -30 48 -30 49 24 41
c14 23 28 42 32 42 3 0 19 -21 35 -46z m-234 16 c16 -30 3 -60 -24 -60 -32 0
-48 22 -40 54 8 32 48 36 64 6z m458 -18 c7 -47 -41 -68 -64 -28 -17 28 3 58
36 54 17 -2 26 -10 28 -26z m-555 -182 c2 -30 4 -56 2 -57 -3 -4 -99 29 -106
36 -4 3 -9 29 -12 57 l-6 50 59 -15 58 -15 5 -56z m155 58 c22 -22 14 -57 -13
-64 -49 -12 -77 43 -32 64 29 14 31 14 45 0z m322 -34 c0 -28 -25 -42 -49 -27
-23 15 -26 45 -6 59 25 18 55 0 55 -32z m230 -1 c-4 -16 -11 -40 -14 -54 -5
-22 -13 -28 -48 -34 -24 -4 -51 -9 -62 -12 -14 -2 -17 1 -11 14 4 10 12 37 17
60 10 44 16 48 95 52 30 1 32 0 23 -26z m-457 -85 c12 -17 22 -49 25 -83 6
-72 27 -74 36 -3 13 98 66 153 66 68 0 -47 20 -54 46 -15 19 29 43 33 46 8 3
-40 -4 -58 -37 -94 -61 -68 -47 -75 47 -25 53 28 67 32 81 21 15 -11 15 -14
-8 -35 -35 -33 -32 -50 10 -50 24 0 35 -5 35 -15 0 -24 -46 -46 -102 -50 -29
-1 -57 -3 -61 -4 -10 -1 -5 -22 6 -23 65 -7 114 -21 133 -39 34 -32 30 -39
-21 -39 -49 0 -59 -14 -21 -32 14 -6 27 -17 30 -24 10 -27 -49 -15 -104 21
-86 55 -104 42 -51 -37 34 -50 47 -93 32 -102 -6 -4 -19 2 -31 14 -30 30 -50
26 -50 -10 0 -19 -5 -30 -14 -30 -22 0 -35 23 -46 81 -13 70 -27 82 -35 33 -8
-54 -43 -126 -58 -121 -6 2 -13 22 -15 45 -4 49 -17 53 -48 15 -14 -17 -26
-24 -37 -20 -32 12 -19 53 33 110 28 30 50 58 50 61 0 16 -36 3 -66 -24 -19
-16 -47 -33 -62 -36 -15 -4 -33 -11 -39 -17 -9 -6 -15 -4 -19 8 -4 10 1 22 15
31 11 8 21 24 21 35 0 16 -7 19 -40 19 -27 0 -40 4 -40 14 0 23 47 46 110 53
41 4 60 10 60 19 0 9 -12 14 -32 14 -38 0 -114 35 -122 56 -5 13 1 15 31 12
45 -4 55 18 23 47 -27 24 -25 35 6 35 31 0 59 -14 102 -52 31 -27 52 -30 52
-7 0 6 -16 31 -35 56 -51 67 -46 143 5 88 36 -39 51 -33 44 16 -6 36 -5 41 11
38 10 -2 27 -16 38 -31z m-481 -21 c10 -8 15 -24 14 -39 -4 -36 -13 -47 -35
-41 -22 6 -48 56 -32 61 6 2 11 10 11 18 0 17 19 18 42 1z m1088 -40 c13 -39
-6 -68 -37 -56 -24 9 -42 51 -24 57 6 2 11 9 11 16 0 25 40 12 50 -17z m-925
-62 c0 -27 -3 -30 -30 -30 -21 0 -31 5 -33 18 -6 33 6 49 35 45 24 -3 28 -8
28 -33z m763 13 c17 -17 15 -55 -4 -62 -29 -11 -44 -6 -56 19 -19 41 28 75 60
43z m-867 -117 c22 -16 40 -33 40 -37 0 -4 -22 -19 -50 -34 -49 -27 -50 -27
-67 -9 -9 10 -25 21 -35 24 -30 10 -22 28 24 57 23 14 43 27 45 27 1 1 20 -12
43 -28z m1004 -33 c19 -13 35 -26 35 -29 0 -4 -21 -20 -46 -37 l-46 -30 -35
23 c-18 13 -39 26 -46 29 -13 5 -13 5 48 45 39 26 49 25 90 -1z m-910 -168 c0
-38 -24 -52 -50 -30 -31 25 -9 73 30 68 16 -2 20 -11 20 -38z m775 11 c14 -27
13 -28 -14 -46 -29 -19 -56 -10 -56 19 0 44 50 63 70 27z m-930 -54 c13 -40
-5 -68 -37 -56 -23 8 -28 26 -17 64 8 31 42 26 54 -8z m1076 -1 c28 -29 7 -84
-27 -71 -22 8 -44 48 -30 53 6 2 11 10 11 18 0 18 27 18 46 0z m-876 -121 c-6
-19 -9 -39 -6 -44 3 -5 0 -14 -7 -19 -14 -12 -99 -33 -105 -27 -2 2 1 29 8 59
11 52 13 56 40 56 16 0 32 5 35 10 4 6 10 8 15 5 5 -3 12 0 16 7 14 22 16 -9
4 -47z m701 -2 c11 -12 22 -103 13 -103 -5 0 -31 6 -59 13 -53 14 -61 26 -64
98 l-1 26 52 -13 c29 -8 55 -17 59 -21z m-520 -39 c9 -11 10 -20 2 -32 -24
-39 -82 -15 -68 28 8 24 47 27 66 4z m316 -10 c14 -37 -41 -71 -66 -40 -9 11
-10 20 -1 35 13 25 58 28 67 5z m-164 -70 c15 -25 27 -49 27 -54 0 -16 -42
-80 -49 -75 -4 2 -20 22 -35 43 l-27 39 23 46 c13 25 25 46 28 46 3 0 17 -20
33 -45z m-215 -82 c14 -41 -6 -66 -42 -52 -29 11 -47 41 -28 48 7 2 12 10 12
18 0 8 10 14 24 14 17 0 27 -8 34 -28z m439 6 c8 -12 9 -19 5 -55 -3 -22 -50
-15 -67 9 -9 14 -11 24 -5 26 5 2 10 10 10 18 0 17 44 19 57 2z"></path>
<path d="M3409 5144 c0 -5 -1 -25 -2 -44 -2 -33 -4 -35 -39 -35 -50 0 -56 -10
-25 -43 l27 -28 -30 -29 c-16 -16 -30 -32 -30 -36 0 -4 19 -9 43 -11 41 -3 42
-4 45 -40 3 -41 12 -47 32 -23 16 19 41 19 66 0 30 -23 42 -18 46 18 3 31 4
32 45 29 55 -3 62 12 22 49 l-33 31 34 28 c40 33 34 47 -20 52 -33 3 -35 5
-36 41 -1 53 -11 57 -43 18 l-27 -33 -37 32 c-20 18 -37 28 -38 24z"></path>
<path d="M1376 1531 c-4 -40 -6 -74 -4 -75 2 -1 34 0 71 2 l68 4 -3 70 -3 70
-61 1 -62 2 -6 -74z"></path>
<path d="M5438 1532 l-3 -72 69 0 69 0 -7 31 c-3 17 -6 50 -6 73 l0 41 -59 0
-60 0 -3 -73z"></path>
</g>
</svg>